<?xml version="1.0" encoding="utf-8"?>
<!-- Generator: Adobe Illustrator 26.5.0, SVG Export Plug-In . SVG Version: 6.00 Build 0)  -->
<svg version="1.1" id="Layer_1" xmlns="http://www.w3.org/2000/svg" xmlns:xlink="http://www.w3.org/1999/xlink" x="0px" y="0px"
	 viewBox="0 0 1024 1024" style="enable-background:new 0 0 1024 1024;" xml:space="preserve">
<style type="text/css">
	.st0{fill:#060406;}
	.st1{fill:#060506;}
	.st2{fill:#070507;}
	.st3{fill:#080608;}
	.st4{fill:#070607;}
	.st5{fill:#080708;}
	.st6{fill:#090709;}
	.st7{fill:#0A080A;}
	.st8{fill:#0C0A0C;}
	.st9{fill:#0F0D0F;}
	.st10{fill:#111011;}
	.st11{fill:#EAEBEA;}
	.st12{fill:#B2B2B2;}
	.st13{fill:#9B9B9B;}
	.st14{fill:#222122;}
	.st15{fill:#D7D8D7;}
	.st16{fill:#252425;}
	.st17{fill:#C6C6C6;}
	.st18{fill:#2E2D2E;}
	.st19{fill:#D4D4D4;}
	.st20{fill:#C4C5C4;}
	.st21{fill:#C3C4C3;}
	.st22{fill:#3B3B3B;}
	.st23{fill:#323132;}
	.st24{fill:#B4B4B4;}
	.st25{fill:#1C1B1C;}
	.st26{fill:#C2C2C2;}
</style>
<path class="st0" d="M594.9,300.5c4,2.8,5.5,7.5,6.9,12.1c0.3,3.2,0.3,6.3,0.2,9.4c-1.6,0.8-1.6,0.8-4,1c-2-1.3-4-2.6-6-4
	c-4.5-2.5-9-2.8-14-2c-5.2,1.7-10.1,3.8-14.7,6.7C561,325,561,325,558,325c0,0.7,0,1.3,0,2c-0.8,0.4-0.8,0.4-1.5,0.8
	c-7.8,4.1-15.5,9.2-21.7,15.5C533,345,533,345,531,345c-0.3,1-0.7,2-1,3c-0.7,0-1.3,0-2,0c0,2,0,4,0,6c6.5,2.8,13,5.1,19.9,6.8
	c1.3,0.3,1.3,0.3,2.7,0.7c9.2,2,18,2.1,27.4,1.6c-0.8,4.3-2.8,6.1-6,9c-0.3,0.3-0.7,0.7-1,1c-2.7-0.1-5.3-0.2-7.9-0.4
	c-0.7,0-1.5-0.1-2.2-0.1c-5.6-0.4-5.6-0.4-7.8-1.5c-3.1-0.3-6.2-0.2-9.2-0.2c-0.8,0-1.7,0-2.6-0.1c-6.4,0-10.6,0.9-15.4,5.4
	c-0.7,0.8-1.3,1.5-2,2.3c-0.7,0.8-1.3,1.5-2,2.3c-3.5,4.7-4.2,8.6-3.7,14.4c0.5,2.3,0.5,2.3,2,4c2.5,1.3,2.5,1.3,5,2
	c-0.3,1.6-0.7,3.3-1,5c-6.9-0.3-12.8-0.8-19-4c2.6,10.6,2.6,10.6,9,19c2.8,0.8,5.1,1,8,1c0,1.6,0,3.3,0,5c-3,1.7-5.1,2.2-8.5,2.2
	c-1.3,0-1.3,0-2.6,0c-0.9,0-1.7,0-2.6-0.1c-0.9,0-1.8,0-2.7,0c-2.2,0-4.4-0.1-6.6-0.1c4.4,13,11.1,23,19.9,33.2
	c3.6,4.2,6.9,8.6,10.1,13.1c2.9,3.9,6,7.5,9.1,11.2c1.8,2.5,2.9,4.6,3.9,7.5c0.7,0,1.3,0,2,0c1.8,2,3.4,4.1,5,6.2
	c0.7,0.9,0.7,0.9,1.4,1.8c2.2,2.9,4.2,5.7,5.6,9c0.7,0,1.3,0,2,0c1.4,1.5,2.6,3,3.9,4.6c4.2,5.3,8.6,10.4,13,15.5
	c8.2,9.5,8.2,9.5,8.2,11.9c0.6,0.2,1.1,0.5,1.7,0.8c4.9,2.7,8.1,6.1,11.3,10.6c2.2,3.1,4.4,6.1,6.9,9c2.1,2.6,2.1,2.6,3,4.9
	c1.5,3.4,3.6,6.1,5.9,9c5.8,7.4,10.9,15,15.6,23.1c1.1,1.8,2.2,3.6,3.4,5.4c5.3,8.1,9.3,16.7,13.2,25.6c2.6,5.8,5.3,11.2,8.7,16.5
	c1.4,2.4,2.3,4.7,3.3,7.3c0.6,1.2,1.2,2.5,1.8,3.7c0.3,0.7,0.7,1.3,1,2c0.7,1.4,1.4,2.7,2.1,4.1c2.4,4.6,4.2,9.3,6,14.1
	c0.6,1.4,1.3,2.9,1.9,4.3c3.7,8.3,6.4,16.9,9.1,25.6c0.9,2.9,2,5.6,3.2,8.4c1.9,4.6,2.4,8.8,2.8,13.8c0.3,0.3,0.7,0.7,1,1
	c0.5,3.2,1,6.5,1.4,9.7c0.6,3,1.4,5.5,2.6,8.3c0.3,2.3,0.7,4.7,1,7c0.3,0.3,0.7,0.7,1,1c6.2,20.9,2.4,48.9-3.1,69.5
	c-1,3.5-1,3.5-1.4,7.2c-2,13.8-12.7,27.1-23.5,35.3c-0.7,0.7-1.4,1.4-2.2,2.2c-4.1,4.1-8.5,8-12.8,11.8c-0.7,0.6-1.4,1.3-2.1,1.9
	c-4.6,4.1-4.6,4.1-6.9,4.1c0,0.7,0,1.3,0,2c-5.8,5.2-11.3,7.9-19,9c-0.3-1.3-0.7-2.6-1-4c1.6-0.8,1.6-0.8,3.2-1.7
	c3.5-2,6.1-4.3,8.8-7.3c0.8-0.9,1.6-1.8,2.4-2.7c2.9-3.5,5-7.4,7.2-11.3c0.4-0.7,0.9-1.3,1.3-2c0.7,0,1.3,0,2,0
	c0.1-0.7,0.2-1.4,0.4-2.2c0.7-3,1.7-5.5,2.9-8.3c10.1-23.8,17.4-50.5,11.8-76.5c-1.6,4.6-3.1,9.1-4,13.8c-0.7,3.5-1.7,5.4-4,8.2
	c-0.7,1.7-1.5,3.4-2.2,5.2c-1,2.4-2.3,4.5-3.7,6.8c-1.4,2.6-2.6,5.2-3.9,7.9c-3,6-6.5,11.4-11.2,16.2c-0.7,0-1.3,0-2,0
	c-0.3,0.6-0.5,1.2-0.8,1.8c-5.5,10.4-16,21.3-27.2,25.2c0,0.7,0,1.3,0,2c-2.3,1.5-2.3,1.5-5.4,3.2c-4,2.2-7.8,4.5-11.7,6.9
	c-7.5,4.5-15.4,7-24,8.4c-1.9,0.2-1.9,0.2-2.9,1.4c-15.2,3.3-30.5,3.1-46,3c-1.1-1.9-1.1-1.9-2-4c0.3-0.7,0.7-1.3,1-2
	c1.6,0,3.3,0,5,0c0-0.7,0-1.3,0-2c1-0.1,1.9-0.1,2.9-0.2c11.4-0.9,20.1-4.5,30.1-9.8c0.8-0.4,1.7-0.8,2.5-1.2c6-3.1,11.5-7.1,17-11
	c0.7-0.5,1.3-0.9,2-1.4c0.6-0.4,1.2-0.8,1.8-1.3c1.7-1,1.7-1,4.7-2c0-0.7,0-1.3,0-2c1.1-1.2,2.3-2.4,3.5-3.6
	c2.6-2.5,5.1-5.2,7.6-7.9c0.5-0.5,1-1.1,1.6-1.7c3.2-3.4,5.9-6.9,8.4-10.9c-1,0.9-2,1.7-3,2.6c-5.4,4.7-10.9,8.9-17.2,12.3
	c-2,1.2-3.8,2.6-5.7,4.1c-8.5,6.4-18,9-28.1,12c-0.9,0.3-1.7,0.5-2.6,0.8C501.5,877,501.5,877,488,870c-1.3-0.3-2.7-0.5-4.1-0.8
	c-6.8-1.4-12.8-5-18.9-8.2c-1.4-0.6-2.7-1.3-4.1-1.9c-8.8-4.4-16.5-10.3-23.6-17c-2.3-2.1-2.3-2.1-4.9-4.1c-2.2-1.8-3.7-3.5-5.3-5.8
	c-1.9-2.6-3.8-5.1-6-7.5c-5.9-6.8-10.3-14.6-13.8-22.9c-1-2.2-2.1-4.4-3.2-6.6c-2.2-4.3-3.7-8.8-5.2-13.4c-0.4-1.2-0.4-1.2-0.8-2.3
	c-0.5-1.5-1-3-1.4-4.5c-0.6-1.8-1.2-3.6-1.9-5.4c-0.9-3-0.7-4.7,0.2-7.6c2.4,0.2,2.4,0.2,5,1c1.2,1.9,1.2,1.9,1.9,4.3
	c3.8,10.5,8.2,18.5,16,26.3c2,2.3,2.5,3.4,3.1,6.4c1.8,1,1.8,1,4,2c1.3,1.1,1.3,1.1,2.6,2.3c6,5.2,13.7,7.9,21,10.7
	c2.1,0.9,3.9,1.8,5.9,3c19.7,10,48.3,10.2,69.4,6c-0.8-0.3-1.7-0.6-2.5-1c-18.3-7-18.3-7-25.5-12c-1.1-0.8-2.2-1.5-3.4-2.2
	c-1.3-0.9-1.3-0.9-2.6-1.8c0.3-1.7,0.7-3.3,1-5c2.9,0.5,4.6,1.4,7.2,2.9c8.9,5.2,20.3,5.4,30.2,3.3c6.2-1.8,12-4.2,17.8-7
	c2.9-1.3,5.8-2.5,8.8-3.7c5.7-2.4,14-5.8,16.9-11.6c0.7,0,1.3,0,2,0c0.3-0.6,0.6-1.2,0.8-1.8c1.1-2.1,2.3-3.7,3.7-5.6
	c2.9-3.8,5.5-7.8,8.1-11.8c0.4-0.6,0.8-1.2,1.2-1.8c1.1-1.7,2.1-3.3,3.2-5c0.5-0.7,1.1-1.5,1.6-2.3c2.6-5.1,3.3-10.9,4.5-16.4
	c0.2-0.9,0.4-1.8,0.6-2.8c0.2-0.8,0.3-1.7,0.5-2.6c0.2-0.6,0.5-1.3,0.8-2c1-0.3,2-0.7,3-1c2.9,1.4,3.4,3.6,4.4,6.5
	c1.1,4.8,0.8,9.7,0.6,14.5c0.7,0,1.3,0,2,0c0.2-0.6,0.5-1.3,0.7-1.9c1.1-2.6,2.3-4.9,3.8-7.4c2.3-4.1,4.1-8.2,5.6-12.7
	c0.3-0.9,0.7-1.9,1.1-2.9c1.7-5.9,1.4-12.1,1.4-18.2c0-1.3,0-2.6,0-3.9c-0.1-9.3-1.2-16.6-5.4-25c-0.3-1-0.7-2-1-3
	c0.3-0.7,0.7-1.3,1-2c4.4,1.3,7.2,3.7,10.5,6.8c1.3,1.4,1.3,1.4,2.5,1.2c0-12-1.9-21.2-7-32c-0.4-0.9-0.8-1.9-1.2-2.8
	c-5.2-11.6-14.6-19.1-24.8-26.2c-0.6-0.4-1.1-0.8-1.7-1.2c-7.1-4.9-13.7-9-22.3-10.8c-1.1-0.3-2.2-0.5-3.3-0.8
	c-4.9-1.2-9.8-2.2-14.7-3.2c1.1,1.5,2.3,3,3.4,4.4c0.6,0.8,1.3,1.6,1.9,2.5c1.5,1.9,1.5,1.9,2.6,3.1c0,1.7,0,3.3,0,5
	c-12-1.1-23.4-2.9-35-6c-1.2-0.3-2.3-0.6-3.6-0.9c-3.6-1.1-7-2.5-10.4-4c-1.2-0.5-2.3-1-3.5-1.5c-1.7-0.8-1.7-0.8-3.5-1.5
	c-0.6-0.3-1.2-0.5-1.9-0.8c-4.1-1.7-7.5-3.7-11.1-6.2c-1-0.7-2-1.3-3-2c0-0.7,0-1.3,0-2c-0.7,0-1.3,0-2,0c0.3,1,0.6,2,0.8,3.1
	c0.4,1.4,0.7,2.7,1.1,4.1c0.3,1,0.3,1,0.6,2c1,3.6,1.8,7.1,2.5,10.8c-5-0.5-7.2-1.8-11-5c-1.2-0.6-2.4-1.2-3.6-1.8
	c-8.6-4.2-15.9-9.2-22.4-16.2c-0.9-0.9-1.9-1.7-2.8-2.6c-2.2-2.4-3.2-4.3-4.2-7.4c-0.7,0-1.3,0-2,0c-1.5-2.7-3-5.5-4.5-8.2
	c-0.4-0.8-0.9-1.6-1.3-2.4c-0.6-1.1-0.6-1.1-1.2-2.3c-0.4-0.7-0.8-1.4-1.1-2.1c-0.8-2-0.8-2-0.8-6c-0.7,0-1.3,0-2,0
	c0,0.7-0.1,1.4-0.1,2.2c-0.2,3.2-0.4,6.4-0.7,9.7c-0.1,1.1-0.1,2.2-0.2,3.4c-0.1,1.1-0.2,2.1-0.2,3.3c-0.1,1.5-0.1,1.5-0.2,3
	c-0.6,2.8-1.3,3.8-3.5,5.5c-5.5-7.7-8.8-14.9-11-24c-0.3-1.2-0.6-2.4-0.9-3.7c-2-9-2.4-17.9-2.4-27.1c0-1.1,0-2.2,0-3.4
	c0.2-22.1,7.4-40.1,18.3-58.9c-3.6,1.9-3.6,1.9-6,5c-0.7,0-1.3,0-2,0c-0.3,1.2-0.3,1.2-0.7,2.4c-0.4,0.8-0.9,1.7-1.3,2.6
	c-2.6,0.7-2.6,0.7-5,1c2-21.4,16.2-37.9,28.9-54.4c0.8-1.1,0.8-1.1,1.6-2.1c0.5-0.6,0.9-1.2,1.4-1.8c1.3-1.7,1.3-1.7,2.1-4.6
	c0.7,0,1.3,0,2,0c0.5-2,0.5-2,1-4c0.7,0,1.3,0,2,0c0.1-0.7,0.2-1.4,0.3-2.2c0.8-3.1,2-5.2,3.7-7.9c1.7-2.7,3-4.9,4-7.9
	c0.7,0,1.3,0,2,0c0.3-3,0.7-5.9,1-9c-0.7,0-1.3,0-2,0c0,0.7,0,1.3,0,2c-3.6,0-7.3,0-11,0c0.3-1.6,0.7-3.3,1-5c1.3-0.3,2.6-0.7,4-1
	c0.1-0.6,0.2-1.2,0.3-1.8c0.8-2.5,1.8-3.3,3.7-5.2c3.6-4.7,5.6-9.5,7.4-15.1c3.7-10.4,3.7-10.4,8.6-12.9c5.2-1.8,10.6-2.9,16-4
	c0-0.7,0-1.3,0-2c1.1-0.1,2.2-0.3,3.4-0.4c1.5-0.2,2.9-0.5,4.4-0.7c0.7-0.1,1.5-0.2,2.2-0.3c4.1-0.7,5.6-1,8.3-4.4
	c0.6-1,1.2-2.1,1.8-3.2c1.4-1.6,2.9-3.1,4.4-4.6c0.8-0.8,1.6-1.5,2.4-2.3c0.7-0.7,1.4-1.4,2.2-2.1c1.2-1.3,1.2-1.3,2.4-2.6
	c11.9-11.4,25.7-18.1,41.6-22.4c0.8-0.3,1.7-0.5,2.5-0.8C580.8,300,587.3,299.2,594.9,300.5z"/>
<path class="st0" d="M429,441c-0.4,2.7-1,4-2.7,6.1c-15.4,19.2-23.8,40.7-27.3,64.9c1.7-1.6,2.9-2.9,4-5c1.3,0,2.6,0,4,0
	c1.3,4.8,0.8,9.1,0.4,13.9c-0.6,8.5,0,15.9,2.6,24.1c0.3,0.3,0.7,0.7,1,1c0,1.7,0,3.3,0,5c-3.4-0.2-3.4-0.2-7-1
	c-1.4-2.1-1.4-2.1-2-4c-0.7,0-1.3,0-2,0c-0.1,2.7-0.1,5.3-0.1,8c0,1.1,0,1.1-0.1,2.3c-0.1,6,0.6,11.6,3.4,17.1
	c0.8,1.7,0.8,1.7-0.2,4.7c-6.3-0.3-9.3-3-14-7c-2.3-3-4.6-5.9-7-9c0,14.2,0,28.4,0,43c0.7,0,1.3,0,2,0c2,4.9,2.2,8.8,2,14
	c-8-2.6-13.7-9-18-16c-5.4-12.3-5.4-12.3-5-19c-0.7,0-1.3,0-2,0c-0.1,0.8-0.2,1.7-0.4,2.5c-0.6,3.1-1.3,6-2.1,9
	c-3.7,12.8-3.7,12.8-1.5,25.4c0.1,1.4,0.1,2.9,0.1,4.3c1,11.1,8.5,21,16.7,28.1c1.1,0.9,2.1,1.8,3.2,2.6c-0.3,1.3-0.7,2.6-1,4
	c-4.4-0.6-8.1-2.3-12-4.3c-0.6-0.3-1.2-0.6-1.8-0.9c-7.7-3.9-13.2-9.6-18.9-15.9c-0.6-0.7-1.2-1.3-1.8-2c-1.5-2-2-3.5-2.5-6
	c-0.7,0-1.3,0-2,0c-0.5-1.1-0.5-1.1-1.1-2.2c-0.5-0.9-0.9-1.8-1.4-2.8c-0.5-0.9-0.9-1.8-1.4-2.8c-1-2.2-1-2.2-2.2-3.3c0-2,0-4,0-6
	c-0.7,0-1.3,0-2,0c-1.5,8-3.2,17.5,1.5,24.6c0.5,0.6,0.9,1.2,1.4,1.8c1.1,1.7,1.1,1.7,1.1,5.7c-3.4,1.3-5.6,1-8.9-0.4
	c-5.7-3.1-10.1-8.5-12.1-14.6c-1.5,5.1-1.2,10.2-1.2,15.4c0,1,0,2.1,0,3.1c0,1,0,2,0,3c0,0.9,0,1.8,0,2.8c0.3,2.9,1.2,5,2.2,7.6
	c0,1.3,0,2.6,0,4c-1.3,0-2.6,0-4,0c0-0.7,0-1.3,0-2c-0.6-0.3-1.3-0.6-1.9-0.9C305,663,305,663,304,661c-0.1,0.7-0.3,1.4-0.4,2
	c-0.2,0.9-0.4,1.8-0.5,2.7c-0.2,0.9-0.3,1.8-0.5,2.7c-0.5,2.6-0.5,2.6-1.1,4.4c-0.6,2.8-0.6,5.4-0.6,8.2c0,1.2,0,2.4,0,3.6
	c0,1.3,0,2.5,0,3.8c0,1.9,0,1.9,0,3.9c0,21,0,21,2.6,41.7c0.5,2.8,0.8,5.7,1.1,8.5c1.4,13.2,4.9,26.3,10.4,38.4
	c0.4,1,0.9,1.9,1.3,2.9c2.8,6.2,5.8,12.4,8.8,18.6c0.5,1,0.5,1,1,2c1.9,3.9,4.1,7.1,6.9,10.5c0.7,1.2,0.7,1.2,1.4,2.4
	c1.9,3.1,4.4,5.7,6.9,8.4c3.8,4,7.2,8.1,10.5,12.6c2.4,3.3,4.3,5.3,8.2,6.6c-0.3,1.7-0.7,3.3-1,5c-6.4-0.1-11.4-1.7-17.1-4.2
	c-0.7-0.3-1.3-0.6-2-0.9c-4.7-2.1-8.8-4.7-12.8-7.9c0-0.7,0-1.3,0-2c-0.6-0.3-1.2-0.5-1.8-0.8c-2.4-1.3-3.8-2.6-5.7-4.6
	c-2-2.1-3.8-3.8-6.1-5.6c-2.9-2.5-4.9-5.2-7.1-8.4c-1.2-1.8-1.2-1.8-3.3-2.7c-1.9-2.9-3.4-6-5-9c-0.3-0.6-0.6-1.2-0.9-1.8
	c-4.2-8-7.9-16-11-24.4c-1.2-3.3-2.6-6.6-4-9.8c-2.1,5.1-2.3,9.4-2.2,14.8c0,0.8,0,1.6,0,2.4c0.1,5.3,0.4,10.5,1.2,15.8
	c-1,0-2,0-3,0c-3.8-9-7.5-17.8-10.2-27.2c-0.5-1.6-1-3.2-1.5-4.8c-1.8-5.2-3.1-10.3-3.9-15.7c-0.1-0.8-0.3-1.7-0.4-2.5
	c-1.4-10.4-1.6-20.8-1.8-31.3c-0.1-4.9-0.5-9.6-1.2-14.4c-4.4,5.1-6.2,11.4-7,18c-0.7,0-1.3,0-2,0c0,1,0,2,0,3c-1.3-0.3-2.6-0.7-4-1
	c0-0.9,0-0.9,0-1.8c-0.2-11.5-0.8-22.1-4.3-33.2c-0.7-2.4-1.4-4.8-2.1-7.2c-3.7-13.5-8.2-25.7-15-37.9c-1.4-2.6-2.5-5.2-3.6-7.9
	c-0.3-0.3-0.7-0.7-1-1c-0.4,0.8-0.8,1.6-1.1,2.4c-5.1,10.6-5.1,10.6-9.9,14.6c-1-0.3-2-0.7-3-1c0-0.6,0-1.3-0.1-1.9
	c-0.2-6.7-0.4-13.3-0.6-20c-0.1-2.5-0.2-4.9-0.2-7.4c-0.3-29-0.3-29-15.1-52.7c0-0.7,0-1.3,0-2c-1.3,0-2.6,0-4,0c0-1.7,0-3.3,0-5
	c0.8-0.2,1.6-0.4,2.5-0.6c14.1-2.9,14.1-2.9,26.8-9.5c1.7-1,1.7-1,4.7-1c0-0.7,0-1.3,0-2c3.5-3.2,7.3-6.1,11-9
	c0.7-0.6,1.5-1.3,2.2-1.9c7.1-6,15.7-9.9,24.5-13.1c2.7-1.2,4.3-2.7,6.3-4.9c0.7-0.7,1.4-1.4,2.1-2.1c0.6-0.7,1.3-1.3,1.9-2
	c1-1,2-2,3-3c0.7-0.7,1.3-1.3,2-2c-6.5-1.6-12.8-2.5-19.4-3.1c-1.8-0.2-3.5-0.3-5.3-0.5c-1.1-0.1-1.1-0.1-2.3-0.2
	c-2-0.3-2-0.3-5-1.3c-0.3-1-0.7-2-1-3c1.8-1.8,4.1-1.2,6.4-1.2c15.5-0.5,30.6-4.9,43.6-13.5c6.1-3.8,12.4-7.4,19.7-7.3
	c1.2,0,1.2,0,2.4,0c0.6,0,1.2,0,1.9,0c-0.4-0.8-0.7-1.6-1.1-2.4c-0.7-1.6-0.7-1.6-1.4-3.2c-0.7-1.6-0.7-1.6-1.4-3.2
	c-1.1-3.3-1.3-5.8-1.1-9.2c3.6,0.6,5.2,1.9,7.9,4.4c10.5,8.3,26,7.2,38.7,7.6c8.8,0.4,15.6,2.1,23.4,6c1.3,0.7,2.6,1.3,4,2
	c0-7.3,0-14.5,0-22c1.6,0.3,3.3,0.7,5,1c1.6,2.7,1.6,2.7,2.8,6.1c0.4,1.1,0.8,2.2,1.3,3.3c0.3,0.9,0.6,1.7,0.9,2.6
	c4.5-4.1,7.8-8.8,11.2-13.8c0.6-0.7,1.2-1.5,1.8-2.2c0.7,0,1.3,0,2,0c0.3-0.6,0.5-1.2,0.8-1.8c1.3-2.3,2.5-3.5,4.5-5.1
	c2.3-1.9,4.4-3.8,6.5-5.9c2.2-2.1,2.2-2.1,4.2-2.1c0-0.7,0-1.3,0-2C426,441,426,441,429,441z"/>
<path class="st1" d="M661,192c13.7,1.9,23.3,11.8,33.4,20.6c1.6,1.4,3.2,2.7,4.9,4c2.3,1.9,4.1,3.8,6,6.1c2.8,3.3,5.7,6.3,8.8,9.2
	c3.8,3.7,6.8,7.4,9.5,12c1.5,2.3,1.5,2.3,3.9,4.5c2.8,2.8,4.4,5.5,6.3,9c0.7,1.3,1.4,2.5,2.1,3.8c0.4,0.6,0.7,1.3,1.1,1.9
	c1.8,3.1,3.6,6.2,5.5,9.3c0.4,0.6,0.7,1.2,1.1,1.9c2.4,4,4.9,8,7.4,11.9c6.9,10.9,12.6,22,17,34.2c1.1,4.1,1.1,4.1,4.2,6.6
	c0.3-2.3,0.7-4.6,1-7c1-0.3,2-0.7,3-1c0.3-4.6,0.7-9.2,1-14c1.3,0.3,2.6,0.7,4,1c1.3,2.4,1.3,2.4,2.5,5.5c1.4,3.7,2.8,7.2,4.6,10.7
	c5.5,12.5,5.3,26.9,5.2,40.3c0,2.8,0,5.5,0,8.3c0,1.8,0,3.5,0,5.3c0,0.8,0,1.6,0,2.5c0,3.9-0.2,7.6-1.2,11.4c-0.7,0-1.3,0-2,0
	c0,0.6-0.1,1.3-0.1,1.9c-0.4,5.7-1.5,9.9-3.9,15.1c-0.4,1.5-0.8,3-1.2,4.6c-2,6.9-5.4,13.1-8.8,19.4c13.8-1.9,28.1-4.1,38-15
	c1,0.3,2,0.7,3,1c-0.5,4.6-2.4,7.3-5,11c-0.7,1.1-1.4,2.1-2.1,3.2c-1.9,2.8-1.9,2.8-3.4,4.2c-1.7,1.7-3.1,3.5-4.5,5.4
	c-0.5,0.7-1,1.4-1.6,2.1c-0.5,0.7-1,1.3-1.5,2c-1.3,1.7-2.6,3.4-4,5c-0.7,0-1.3,0-2,0c0,0.7,0,1.3,0,2c-1.7,1.3-1.7,1.3-4,2.8
	c-3,1.9-5.9,3.9-8.7,6.1c-3.7,2.8-7.6,5.2-11.7,7.5c-0.6,0.4-1.2,0.7-1.9,1.1c-4.5,2.5-4.5,2.5-6.7,2.5c0,0.7,0,1.3,0,2
	c4.3-0.1,8.5-0.2,12.8-0.4c1.4,0,2.9-0.1,4.3-0.1c13.4,0.2,13.4,0.2,25.8-3.5c1,0,2,0,3,0c0-0.7,0-1.3,0-2c1.3,0.3,2.6,0.7,4,1
	c-1.2,3.5-3,4.8-6.1,6.8c-2.3,1.5-4.4,3.2-6.5,4.9c-4.8,3.9-9.7,7.6-14.6,11.2c-1.8,1.4-3.6,2.8-5.4,4.2c-2.8,2.2-5.8,3.8-8.9,5.5
	c-1.6,0.9-3.3,1.8-4.8,2.8c-8.6,5.2-17.9,7.3-27.6,9.5c4.8,6.5,9.9,11.9,16.1,17.1c1.9,1.9,1.9,1.9,1.9,4.9
	c-0.9-0.1-1.7-0.3-2.6-0.4c-2.1-0.3-4.1-0.7-6.2-0.9c-6.9-1-12.8-2.7-19.1-5.6c-1.2-0.5-1.2-0.5-2.5-1.1c-3.6-1.6-7.1-3.2-10.5-4.9
	c0-0.7,0-1.3,0-2c-0.7,0.3-1.3,0.7-2,1c0.4,1,0.8,1.9,1.2,2.9c0.5,1.3,1,2.6,1.5,3.8c0.3,0.6,0.5,1.3,0.8,1.9
	c1.8,4.8,1.8,4.8,0.8,7.8c-0.4,0.5-0.8,1-1.1,1.5c-13-2.4-20.4-11.2-28.8-20.6c-1.7-1.9-3.4-3.6-5.2-5.4c-1.9-2-1.9-2-1.9-4
	c-0.6-0.3-1.2-0.6-1.9-0.9c-1.4-0.7-2.8-1.4-4.1-2.1c0.3,0.8,0.7,1.5,1,2.3c3.7,8.4,6.5,16.4,6,25.7c-4-0.5-6.3-1.7-9.4-4.1
	c-6.1-4.5-12.7-7.6-19.6-10.9c-1.9-0.9-3.7-1.9-5.6-2.8c-3.1-1.6-6.2-2.9-9.4-4.2c0.4,0.8,0.8,1.5,1.2,2.3c3,5.8,5.5,11.3,7.2,17.6
	c0.6,2.2,0.6,2.2,1.6,4c3.1,6.4,3.4,13.6,3.3,20.6c0,0.8,0,1.6,0,2.4c0,5.8-1.2,10.7-3.4,16.1c-1.3-0.3-2.6-0.7-4-1
	c-0.2-1.2-0.5-2.4-0.8-3.6c-1-4.1-2.8-7-5.2-10.4c-0.7-1.3-1.4-2.6-2-4c-0.7,0-1.3,0-2,0c-1.1-1.1-1.1-1.1-2.2-2.2
	c-3.1-3.1-6-4.7-9.8-6.8c0.4,0.8,0.8,1.6,1.2,2.4c0.5,1.1,1.1,2.1,1.6,3.2c0.5,1,1.1,2.1,1.6,3.2c2.4,5,3.7,9.5,4.1,15.1
	c0.1,1.5,0.1,1.5,0.2,2.9c0.1,1.1,0.1,1.1,0.1,2.2c-1.7-0.1-1.7-0.1-4-1c-1.5-2.3-2.9-4.5-4.2-6.9c-4.5-7.9-10-14.2-16.4-20.7
	c-2-2-3.8-4.1-5.7-6.2c-2.4-2.7-4.8-5.2-7.6-7.5c-4.1-3.4-7.5-7.3-11-11.3c-1.3-1.5-2.7-2.9-4.1-4.3c-2.2-2.2-4.2-4.6-6.2-7.1
	c-2.4-3-4.8-5.9-7.3-8.9c-4.1-4.9-7.5-9.5-10.6-15.1c-1.6-2.4-3.2-4.7-4.9-7c-2.1-3-4.2-6-6.2-9c-4.7-6.8-9.4-13.5-14.5-20
	c-2.3-3.2-3.4-6-3.4-10c-0.7,0-1.3,0-2,0c0.5-2,0.5-2,1-4c1.6,0.1,1.6,0.1,3.2,0.2c8,0.6,8,0.6,15.5-1.7c2.1-1.8,2.1-1.8,3.7-3.8
	c1.7-1.9,3.3-2.7,5.6-3.7c1,1,1,1,1.1,4.4c0,1.4,0,2.8,0,4.2c0,0.7,0,1.4,0,2.2c0,1.8,0,3.5,0,5.3c10.3-1.5,18.3-5.3,26.3-11.8
	c1.7-1.2,1.7-1.2,4.7-2.2c0.7-1.3,1.4-2.7,2-4c0.7-0.3,1.3-0.7,2-1c0.7,0.3,1.3,0.7,2,1c1,9.2-1.5,15.1-6,23c-0.7,1.3-1.3,2.7-2,4
	c-0.7,0-1.3,0-2,0c0,1,0,2,0,3c-0.7,0-1.3,0-2,0c0,1.3,0,2.6,0,4c15.8,1.1,33.2-6.8,45-17c0.9-0.6,1.7-1.2,2.6-1.9
	c3.3-3,5.8-6.5,8.4-10.1c1,0.3,2,0.7,3,1c-0.1,7.4-2.3,11.9-6.2,18.1c-2.2,3.5-4,7.1-5.8,10.9c2.4,0.2,2.4,0.2,5,0
	c0.7-0.7,1.3-1.3,2-2c4.6-1.8,9.2-3.1,14.2-3.2c6.5-0.6,12.3-3.9,18-6.8c1.6-0.8,3.2-1.6,4.7-2.3c14.6-7.3,27.5-20.1,35.9-34
	c0.4-0.5,0.8-1,1.2-1.6c0.7,0,1.3,0,2,0c0.3-1.3,0.7-2.6,1-4c1,0,2,0,3,0c2.7,5.5,0.9,13.4-1,19c-1.9,3.1-1.9,3.1-4,6
	c-1.4,2.6-2.7,5.3-4,8c7.3-3.8,14.2-11.6,17-19.4c1.3-4.8,1.9-9.7,2.5-14.6c0.5-2.9,0.5-2.9,1.5-4.7c1.3-3,1.2-5.4,1.2-8.7
	c0-1.3,0-2.5,0-3.8c0-1.3,0-2.6,0-4c0-1.3,0-2.6,0-3.9c0-6.7-0.4-12.4-2.3-18.8c-0.2-1.4-0.4-2.8-0.6-4.2c-1.1-7.7-2-13.9-7.2-20.1
	C711,337,711,337,711,333c3.6,1.3,6.6,2.9,9.8,5c0.8,0.5,1.6,1,2.4,1.6c0.6,0.5,1.2,0.9,1.8,1.4c0,0.7,0,1.3,0,2c3,1,3,1,6,2
	c-2.5-14.9-6-28.1-17-39c-5-5.5-5-5.5-5-8c2.2-0.3,2.2-0.3,5,0c2.4,2.2,2.4,2.2,5,5c2,1.4,4,2.7,6,4c1.9,1.6,1.9,1.6,3,3
	c0,0.7,0,1.3,0,2c0.7,0,1.3,0,2,0c-1.5-8.2-3.1-16.2-6-24c-0.3-1-0.6-2-0.9-3c-3.2-9.8-7.9-18.6-12.8-27.6
	c-2.3-4.3-4.4-8.7-6.6-13.1c-2.2-4.6-4.6-9.2-8.3-12.8c-1.4-1.4-1.4-1.4-2.8-3.8c-1.9-3.2-4.2-5.9-6.6-8.7c-0.6-0.7-1.1-1.3-1.7-2
	c-2.7-3.1-5.3-6.1-8.2-8.9C674,206,674,206,674,204c-0.7-0.2-1.3-0.4-2-0.6c-4-1.9-7.9-4.2-11-7.4C661,194.7,661,193.4,661,192z"/>
<path class="st2" d="M495.6,41.9c1,0.2,1.9,0.3,2.9,0.5c4.8,0.9,8.4,1.8,12.4,4.6c2.3,0.8,2.3,0.8,4.8,1.4
	c11.3,3.2,21.6,9.2,32.1,14.5c7.9,4,16,7.8,24.1,11.3c3.9,1.7,7.4,3.5,11,5.7c1.7,0.9,3.5,1.8,5.2,2.8C609,93.6,609,93.6,617,101
	c0,0.7,0,1.3,0,2c0.7,0.2,1.4,0.4,2.1,0.7c3.6,1.7,6.1,4.1,8.9,6.8c3.5,3.3,6.8,6.2,11,8.6c1.7,1.6,3.4,3.3,5,5
	c3.4,3,6.8,6,10.3,8.9c1.1,0.9,1.1,0.9,2.2,1.9c0.7,0.6,1.3,1.1,2,1.7c1.5,1.5,1.5,1.5,1.5,3.5c0.8,0.4,0.8,0.4,1.7,0.8
	c4.8,2.6,8.2,6.1,11.6,10.4c0.7,0.9,1.4,1.7,2.1,2.6c1.6,2.2,1.6,2.2,1.6,4.2c0.6,0.3,1.2,0.5,1.8,0.8c2.2,1.2,3.8,2.4,5.6,4.2
	c0.6,0.6,1.3,1.2,1.9,1.8c0.7,0.6,1.3,1.2,2,1.9c0.7,0.6,1.3,1.3,2,1.9c6.4,6.1,12,12.4,17.2,19.5c1.4,1.9,2.9,3.7,4.5,5.4
	c10.6,12.1,17.7,25.3,19,41.5c-1.7,0-3.3,0-5,0c-0.4-0.9-0.8-1.7-1.1-2.6c-2.1-3.9-4.6-6.8-7.5-10.1c-1.1-1.2-2.2-2.5-3.2-3.7
	c-0.5-0.6-1.1-1.2-1.6-1.8c-2.2-2.6-4.3-5.2-6.4-7.8c-3.1-3.8-6.3-6.9-10.1-9.9c0-0.7,0-1.3,0-2c-0.7-0.2-1.4-0.5-2.2-0.8
	c-4.3-1.9-7.1-4.3-9.9-8c-3.2-3.8-7-6.3-11.2-9c-1.5-0.9-2.9-1.9-4.4-2.9c-1-0.6-1-0.6-1.9-1.2c-0.5-0.4-0.9-0.8-1.4-1.1
	c0-0.7,0-1.3,0-2c-1.2-0.3-1.2-0.3-2.4-0.6c-4.8-1.9-8.5-4.7-12.6-7.8c-1.6-1.2-3.1-2.3-4.7-3.5c-0.7-0.5-1.5-1.1-2.2-1.7
	c-1.8-1.3-3.7-2.6-5.6-3.8c-1.2-0.8-1.2-0.8-2.4-1.7c0-0.7,0-1.3,0-2c-0.6-0.1-1.2-0.2-1.8-0.3c-2.2-0.7-2.2-0.7-4-2.1
	c-2.5-1.8-4.9-2.7-7.8-3.6c-5.2-1.7-5.2-1.7-7.4-3.9c-2.1-0.8-2.1-0.8-4.5-1.4c-3.5-1-6.9-2.2-10.3-3.6c-13.8-5.6-28.3-7.5-43-8.9
	c-0.7-0.1-1.4-0.1-2.1-0.2c-7.6-0.7-14.6-1.1-22.2,0.1c-1.2,0.2-2.4,0.4-3.6,0.6c-1.2,0.2-1.2,0.2-2.4,0.4c-0.3-1-0.7-2-1-3
	c1.1-0.2,2.2-0.5,3.4-0.8c1.2-0.4,2.4-0.8,3.6-1.2c0.3-0.6,0.5-1.2,0.8-1.8c1.7-3.2,4.5-4.5,7.6-6.2c0.6-0.3,1.2-0.7,1.9-1.1
	c6.6-3.6,13.1-5.9,20.7-5.9c0-0.7,0-1.3,0-2c-0.6-0.1-1.3-0.2-1.9-0.2c-2.6-0.6-4.5-1.4-6.9-2.6c-6.1-2.8-12.6-4.2-19.2-5.7
	c-2-0.5-4.1-1-6.1-1.6c-3.3-0.8-6.4-1.3-9.7-1.5c-0.9-0.1-1.9-0.1-2.8-0.2c-17.3-0.8-35.4,0-52.1,5c-3.5,0.9-6.6,0.9-10.3,0.8
	c2.8-8.6,11.4-15.4,19-20c1,0,2,0,3,0c0-0.7,0-1.3,0-2c-0.7,0-1.5-0.1-2.2-0.1c-1-0.1-2-0.1-3.1-0.2c-1.5-0.1-1.5-0.1-3-0.2
	c-3-0.3-5.7-0.8-8.6-1.4c-7.5-1.4-15.1-1.2-22.7-1.2c-1.2,0-1.2,0-2.3,0c-3.9,0-7.8,0.1-11.7,0.1c-3.6,0-7.2,0-10.9,0
	c-16.6,0.1-32.6,3.4-48.8,6.9c-3.1,0.7-6.2,1.2-9.4,1.7c-3.2,0.5-5.9,1.4-8.8,2.5c-13.9,5.5-13.9,5.5-20.9,7.1
	c-3.8,0.9-7,2.3-10.6,3.9c-3.5,1.6-5,2-9,2c0,0.7,0,1.3,0,2c-1.2,0.3-1.2,0.3-2.3,0.7c-5.7,1.8-10.7,3.6-15.6,7
	c-2.4,1.6-4.8,2.9-7.4,4.2c-5.8,3.1-11.2,6.6-16.7,10.1c-1.8,1.2-3.7,2.3-5.5,3.5c-0.9,0.6-1.8,1.1-2.7,1.7
	c-1.9,1.2-3.9,2.4-5.8,3.7c-1,0.6-2,1.2-3,1.9c-0.9,0.6-1.8,1.1-2.7,1.7c-2,1.4-3.6,2.8-5.3,4.6c-1.7,0.9-3.3,1.9-5,2.8
	c-6.5,3.9-14,9.1-17,16.2c-1.3-0.3-2.6-0.7-4-1c0.3-1.3,0.7-2.6,1-4c0.7,0,1.3,0,2,0c0.3-0.9,0.5-1.7,0.8-2.6
	c3.1-8.6,8.3-16.3,15.5-22c2.3-1.9,3.9-4.1,5.8-6.4c0.7,0,1.3,0,2,0c0.2-0.5,0.4-1.1,0.6-1.6c1.9-3.3,4.5-5.7,7.2-8.3
	c0.5-0.5,1-1,1.6-1.6c1-1,2.1-2,3.1-3.1c1.3-1.3,2.6-2.7,4-4c2.9-2.7,5.9-5,9.2-7.3c0.9-0.6,0.9-0.6,1.9-1.3
	c5.4-3.8,10.9-7.3,16.5-10.8c0.8-0.5,1.5-1,2.3-1.5c0.7-0.5,1.4-0.9,2.1-1.4c0.9-0.6,0.9-0.6,1.8-1.2c1.9-1,3.7-1.5,5.8-1.9
	c0-0.7,0-1.3,0-2c1-0.4,2-0.8,3-1.3c3.9-1.7,7.5-3.6,11.2-5.7c6.1-3.3,12.2-5.8,18.8-8.1c2.3-0.8,4.5-1.7,6.8-2.6
	c1-0.4,2.1-0.8,3.1-1.2c2.2-0.9,4.4-1.8,6.6-2.7c10-4.3,20-7,30.7-8.8c4.6-0.8,9.1-1.9,13.7-2.9c1.6-0.4,1.6-0.4,3.2-0.7
	c0.6-0.2,1.2-0.3,1.8-0.5c7.6-1.9,15.3-2.5,23.1-3.1c0.7-0.1,1.5-0.1,2.3-0.2C444.2,36.9,469.8,37.6,495.6,41.9z"/>
<path class="st0" d="M507,618c3.8,0.3,6.4,1.1,9.5,3.2c13.2,8.7,29.7,11,45.2,11.1c1.4,0,1.4,0,2.9,0c1.4,0,1.4,0,2.7,0
	c0.8,0,1.6,0,2.4,0c2.7-0.5,4.2-1.6,6.2-3.4c-1-1-1-1-2-2c0-1.3,0-2.6,0-4c4.5,1.5,7.8,4,11.3,7c0.5,0.5,1.1,0.9,1.7,1.4
	c1.4,1.2,2.7,2.4,4,3.6c0,0.7,0,1.3,0,2c0.6,0.3,1.2,0.5,1.8,0.8c2.3,1.2,4.3,2.5,6.2,4.2c0,0.7,0,1.3,0,2c0.7,0,1.3,0,2,0
	c4.5,5.5,8.7,11.8,9.2,19.1c-0.1,0.6-0.2,1.3-0.2,1.9c-1,0.5-1,0.5-2,1c-2.4-0.9-4.7-1.9-7-3c0.7,1,1.3,2,2,3c5,13.8,6.5,28.4,6,43
	c-1,0-2,0-3,0c-1-1.7-2-3.3-3-5c-1.6-1.4-3.3-2.7-5-4c0.1,0.8,0.2,1.7,0.2,2.5c0.5,9.9-1.2,18.7-3.6,28.2c-0.3,1.2-0.6,2.5-0.9,3.8
	c-2.5,9.6-2.5,9.6-5.8,13.5c-1,1.8-1.9,3.6-2.9,5.4c-2.3,4.4-4.9,7.9-8.1,11.6c-0.3,1-0.7,2-1,3c-1.7,0.3-3.3,0.7-5,1
	c0,0.7,0,1.3,0,2c-1.5,1.3-1.5,1.3-3.4,2.6c-0.6,0.4-1.3,0.9-1.9,1.4c-1.7,1-1.7,1-3.7,1c-0.2,0.6-0.5,1.2-0.8,1.8
	c-1.4,2.5-2.9,3.6-5.2,5.2c-1.2-2.2-1.2-2.2-2-5c1.2-2.4,1.2-2.4,3-5c1.7-4.3,2.2-7.9,2.2-12.5c0-1.2,0-2.4,0-3.7c0-1.3,0-2.5,0-3.8
	c0-1.3,0-2.5,0-3.8c0-7.6,0-7.6-1.2-15.1c-2.4,4.7-4.1,9-4.9,14.2c-1.1,6.9-3.6,13.3-6.1,19.8c-0.9,2.5-1.8,5-2.7,7.6
	c-1.4,3.8-2.8,7.7-4.3,11.4c-0.7,0-1.3,0-2,0c-0.1,0.6-0.2,1.2-0.3,1.8c-1.6,4.9-6.7,8.1-11,10.5c-6.4,2.8-12.7,3.5-19.7,3.7
	c-0.5-2.5-0.5-2.5-1-5c1.1-0.2,2.1-0.5,3.2-0.7c4-1.1,6.1-3.1,8.8-6.3c0.5-0.6,1.1-1.2,1.6-1.8c4.1-6.5,4.9-12.7,5.1-20.2
	c0-0.9,0.1-1.7,0.1-2.6c0.1-2.1,0.1-4.2,0.2-6.4c-6.6,6.3-7.7,12.2-8,21c-1.3,0-2.6,0-4,0c-0.6-2.1-1.3-4.1-1.9-6.2
	c-0.4-1.1-0.7-2.3-1.1-3.5c-1.4-4.8-2.1-9.3-2.3-14.3c0-1.1-0.1-2.2-0.1-3.4c0-1.2-0.1-2.3-0.1-3.5c0-1.2-0.1-2.3-0.1-3.5
	c-0.1-2.9-0.2-5.8-0.3-8.6c-2.8,5.6-4.5,10.5-5.2,16.8c-0.5,4.1-0.9,8.2-1.8,12.2c-0.7,0-1.3,0-2,0c-4.9-12.2-5.5-26-5-39
	c0-0.8,0-1.6,0.1-2.4c0.4-6.3,2.9-11.1,5.9-16.6c-1,0.1-1.9,0.1-2.9,0.2c-7.6-0.1-14.4-3.7-21.2-6.6c-0.7-0.3-1.4-0.6-2.1-0.9
	c-4.2-1.9-8.1-3.8-11.8-6.7c0-1.3,0-2.6,0-4c4.1,0.5,8.1,1.2,12.2,2c5.9,1.1,11.8,1.6,17.8,2c0-0.7,0-1.3,0-2
	c-0.6-0.2-1.2-0.4-1.8-0.6c-4.6-1.5-8.9-3.1-13.2-5.4c0-0.7,0-1.3,0-2c-0.9-0.3-1.8-0.5-2.7-0.8c-3.1-1.1-5.6-2.3-8.3-4.2
	c0-0.7,0-1.3,0-2c-0.6-0.2-1.1-0.5-1.7-0.7c-9-5.1-15.7-16.9-19.3-26.3c0-1.3,0-2.6,0-4c2.3,0.2,2.3,0.2,5,1
	c0.7,1.2,0.7,1.2,1.4,2.4c1.8,3,3.4,4.1,6.4,5.8c1.2,0.7,1.2,0.7,2.5,1.4c13.8,7.2,29.2,11.3,44.8,9.4c3.2-1,5.2-2.1,8-4
	c-0.7-0.1-1.5-0.2-2.2-0.3c-11-1.5-21-4.6-28.8-12.7c0-1,0-2,0-3c0.8,0,1.6,0,2.5,0c7.3-0.2,13.4-1.3,20.2-3.9
	c0.7-0.3,1.4-0.5,2.1-0.8c4.7-1.8,4.7-1.8,8.2-5.3c0.4-4.7,0.6-8.9-2-13c-2.5-1.2-2.5-1.2-5-2c-0.5-1-0.5-1-1-2
	C506.3,619.3,506.7,618.7,507,618z"/>
<path class="st2" d="M370,849c2.9-0.4,5.1-0.6,7.6,1.1c1.2,1,2.3,2.1,3.5,3.2c1.8,1.7,3.7,3.2,5.8,4.7c3,2.3,5.9,4.7,8.8,7.1
	c9.6,8.1,19.4,15,30.2,21.5c4.1,2.5,8,5.2,11.9,7.9c2.3,1.6,2.3,1.6,5.2,2.4c0,0.7,0,1.3,0,2c0.7,0.3,1.5,0.5,2.2,0.8
	c2.8,1.2,2.8,1.2,4.4,2.5c3.2,2.3,6.6,3.9,10.1,5.7c0.7,0.3,1.4,0.7,2.1,1c4.3,2.1,8.7,4.1,13.1,6c1.7,0.8,3.4,1.6,5.1,2.4
	c5.2,2.4,10.4,4,15.9,5.6c2.9,1,2.9,1,5.4,2.5c16.3,9.7,39.9,8.7,58.1,6.6c0.7-0.1,1.4-0.2,2.2-0.2c4.1-0.5,4.1-0.5,7.3-2.9
	c2-0.7,2-0.7,4.2-1.4c5-1.6,9.4-3.6,13.8-6.6c1.3,0,2.6,0,4,0c-1.7,10.8-9.8,16.7-18,23c-0.7,0.7-1.3,1.3-2,2
	c13.3,2.8,26.4,3.7,40,4c0-0.7,0-1.3,0-2c1.1-0.1,1.1-0.1,2.2-0.2c13.6-1.4,27.3-6,39.8-11.6c3-1.2,3-1.2,7-1.2c0-0.7,0-1.3,0-2
	c0.7-0.4,1.4-0.7,2.2-1.1c6.6-3.4,13.4-7.1,16.8-13.9c1.3,0,2.6,0,4,0c-1.1,6.5-3.3,9.4-8,14c-1,1.2-2,2.3-3,3.5
	c-2.5,3-5.2,5.8-8,8.5c-0.7,0.7-1.3,1.3-2,2c5-1.1,10-2.2,15-3.4c0.7-0.2,1.4-0.3,2.2-0.5c0.7-0.2,1.5-0.4,2.2-0.5
	c4.7-1.1,9.4-2,14.1-2.9c13.9-2.8,26.4-7.8,39.1-14c5.9-2.9,11.7-5.4,17.9-7.6c3-1.1,5.7-2.5,8.5-4c3.9-1.9,8-3.3,12.1-4.8
	c2.9-1.2,5.4-2.6,8.1-4.2c1.1-0.3,2.1-0.5,3.2-0.8c4.1-1.3,6.8-3.2,10.3-5.6c2.6-1.6,5.1-2.8,7.9-4c5.7-2.5,10.6-5.8,15.6-9.6
	c1.2-0.9,1.2-0.9,2.4-1.8c7.5-5.6,7.5-5.6,13.1-12.9c1.5-2.2,1.5-2.2,4.2-3.1c0.8-0.1,1.5-0.1,2.3-0.2c0.4,6.2-1.3,8.3-5.2,12.9
	c-0.9,1-1.9,2.1-2.8,3.1c-0.6,0.7-1.2,1.4-1.9,2.1c-2.1,2.3-4.2,4.7-6.4,7c-1,1.1-1,1.1-2.1,2.3c-0.7,0.7-1.3,1.4-2,2.2
	c-0.9,1-0.9,1-1.8,1.9c-1.9,1.6-3.3,2.1-5.8,2.5c0,0.7,0,1.3,0,2c-0.6,0.1-1.2,0.2-1.9,0.2c-0.7,0.2-1.4,0.5-2.1,0.8
	c-0.3,0.6-0.5,1.2-0.8,1.8c-2.6,5-8.7,7.6-13.5,10.2c-1.8,1-3.4,2.2-5,3.4c-3.7,2.7-7.6,4.8-11.7,7c-3.4,1.8-6.8,3.8-10.2,5.7
	c-4,2.3-8.1,4.5-12.2,6.6c-4.1,2-7.7,4.3-11.5,6.9c-3.6,2.4-7.4,4.5-11.2,6.5c-0.6,0.3-1.2,0.6-1.8,1c-5.9,3.1-12.1,5.7-18.2,8.3
	c-3.3,1.4-6.6,2.9-9.8,4.4c-14.4,6.6-28.4,9.7-44.1,11.8c-7.5,1-14.7,2.6-22.1,4.5c-5.4,1.5-10.8,2.5-16.4,3.1
	c-1.2,0.1-1.2,0.1-2.4,0.2c-29.2,3-58.9,3.6-87.2-4.7c-3-0.8-6-1.5-9.1-2.1c-7.2-1.6-14.3-3.7-20.6-7.5c-2.7-1.5-4.4-2.3-7.3-3.1
	c-7.5-2.3-14.3-6.9-21.1-10.8c0-0.7,0-1.3,0-2c-1.5-0.3-1.5-0.3-3-0.6c-4-1.1-6.7-3.2-9.8-5.7c-2.3-1.8-4.8-3.1-7.4-4.6
	c-9.9-5.8-24.7-16.3-28.8-27.1c-1-0.3-2-0.7-3-1c-1.5-1.7-3-3.5-4.4-5.2c-0.8-1-1.5-1.9-2.3-2.9c-0.7-0.9-1.5-1.9-2.3-2.9
	c-2.6-3.4-2.6-3.4-5.5-6.4c-2.2-2.3-3.8-4.9-5.5-7.6c-0.9-1.4-1.8-2.7-2.7-4.1c-0.5-0.8-1-1.5-1.5-2.3c-1.4-2-2.8-4-4.2-6
	c-0.4-0.6-0.8-1.2-1.2-1.8c-0.8-1.2-1.6-2.3-2.5-3.5c-2.9-4.1-2.9-4.1-2.9-6.3c-0.7,0-1.3,0-2,0c-0.5-1-1-2.1-1.6-3.1
	c-2.7-4.7-6.6-8.4-11.4-10.9C370,851,370,850,370,849z"/>
<path class="st2" d="M144.7,338.3c1,0.1,2,0.1,3,0.2c2.8,0.2,5.6,0.3,8.3,0.5c1.2,0.1,2.5,0.1,3.7,0.2c2.8,0.2,5.5,0.5,8.3,0.8
	c1.4,0.1,1.4,0.1,2.8,0.3c6.4,0.9,11.2,3,16.7,6.4c2.5,1.4,4.7,1.9,7.5,2.3c0,0.7,0,1.3,0,2c0.7,0.2,1.4,0.5,2.1,0.8
	c3.2,1.4,5.7,3.2,8.5,5.2c2.8,2.1,5.5,4.1,8.4,6c0,0.7,0,1.3,0,2c0.6,0.3,1.2,0.6,1.8,0.8c10.4,5.5,19.2,15.9,26.2,25.2
	c1.3,1.7,2.6,3.3,3.9,5c0.5,0.7,1.1,1.4,1.6,2.1c1.5,1.9,1.5,1.9,3.2,3.4c1.3,1.4,1.3,1.4,1.3,4.4c0.7,0,1.3,0,2,0
	c1.4,2,1.4,2,3.1,4.8c3.1,5.1,6.5,9.8,10.1,14.6c1.9,2.8,3.3,5.6,4.8,8.6c0.8,1.1,1.5,2.2,2.4,3.3c1.9,2.6,3.4,5.1,4.9,7.9
	c3.8,7.1,9.3,13,14.6,18.9c0.5,0.5,0.9,1.1,1.4,1.6c1.3,1.5,2.6,3,4,4.5c1.8,2.7,1.8,2.7,1.5,5.6c-0.3,0.7-0.5,1.4-0.8,2.1
	c-16.6,0.9-31.5-0.6-46.4-8.2c-3.2-1.9-3.2-1.9-5.6-1.8c1.2,1.6,2.5,3.2,3.7,4.8c0.7,0.9,1.4,1.8,2.1,2.7c5.2,6,12.2,10.6,20.2,11.6
	c0.6,1.9,0.6,1.9,1,4c-5,5-16.2,4.2-23,4.4c-6.6-0.1-13-1-19.5-2.2c-0.9-0.2-1.9-0.3-2.8-0.5c-5.3-1-9.8-2.4-14.7-4.7
	c-0.9-0.4-1.9-0.8-2.9-1.1c-17.6-7-17.6-7-24.3-12.7c-8.1-6.2-16.9-9.5-26.7-12c-1.6-0.5-1.6-0.5-3.3-0.9c-7.4-2-14.1-2.6-21.8-2.2
	c-0.3-1.6-0.7-3.3-1-5c2-1,4-2,6-3c0.6-0.3,1.1-0.7,1.7-1c3.1-1.4,6.4-2,9.7-2.6c0.7-0.1,1.4-0.3,2.1-0.4c6.4-1.1,12.9-1.7,19.4-2
	c-4.9-3.9-9.8-7.6-15-11c-1.5-1-1.5-1-3-2c0-0.7,0-1.3,0-2c-0.9-0.1-1.8-0.2-2.7-0.3c-3.4-0.7-5.6-1.8-8.6-3.6c-7-4-13.8-6-21.6-7.7
	c-2.1-0.5-2.1-0.5-5.1-1.5c-2.5-0.8-4.5-1.2-7-1.4c-3.9-0.5-3.9-0.5-6.4-1.5c-4.4-1.7-8.8-1.4-13.4-1.4c-1.4,0-1.4,0-2.9-0.1
	c-6.5,0-10.7,1-16.3,4.4c-0.5,1-0.5,1-1,2c-1.3,0-2.6,0-4,0c0-1.6,0-3.3,0-5c1.5-0.5,1.5-0.5,3-1c0.3-0.7,0.5-1.5,0.8-2.2
	c2.4-5.6,7.8-8.4,13.2-10.8c2.3-0.7,4.7-1.4,7-2c0.6-0.2,1.3-0.5,1.9-0.7c6.3-2.4,12.1-2.7,18.8-2.6c1.1,0,2.1,0,3.2,0
	c7.7,0.2,14.6,1.1,22,3.3c1.6,0.4,3.1,0.8,4.7,1.2c9.6,2.5,18.9,5.6,28.1,9.3c0.9,0.4,1.8,0.7,2.7,1.1c4.9,2,9.3,4.3,13.7,7.3
	c2.4,1.5,5,2.3,7.7,3.1c0,0.7,0,1.3,0,2c1.3,0.4,1.3,0.4,2.6,0.8c3.6,1.3,6.2,3.1,9.4,5.2c2.3,1.1,4.6,2,7,3c0.7,0.3,1.3,0.7,2,1
	c-2.8-5.3-5.9-10.4-9.3-15.4c-1.7-2.6-3.4-5.2-5.1-7.8c-5.9-9.2-12-17.4-19.5-25.3c-2.3-2.4-4.3-4.7-6.1-7.5c-1.5-0.5-1.5-0.5-3-1
	c0-0.7,0-1.3,0-2c-0.7-0.3-1.4-0.5-2.1-0.8c-3-1.3-5.9-2.7-8.9-4.2c0-0.7,0-1.3,0-2c-0.8-0.2-1.6-0.5-2.5-0.8
	c-3.5-1.2-3.5-1.2-6.9-3.2c-5-2.6-10.5-3.4-16-4.4c-2.7-0.5-5.3-1.1-7.9-1.8c-7-1.6-13.6-0.8-20.6,0.2c-0.7-1-1.3-2-2-3
	C116.7,343.1,129.3,337.3,144.7,338.3z"/>
<path class="st0" d="M187,583c1,0,2,0,3,0c2.3,18-1.4,30.6-11,46c-0.7,1.3-1.5,2.6-2.2,3.9c-1.5,2.5-3,4.8-4.8,7.1
	c8.3-1.9,14.6-6.1,19.5-13.1c0.9-1.6,1.7-3.3,2.5-4.9c1.3,0,2.6,0,4,0c1.8,8.8,2.3,17.4,2.3,26.4c0,1.2,0,2.4,0,3.7
	c0,13.3-2.8,25-8.4,37c-0.3,0.7-0.6,1.4-1,2.2c-2.3,4.9-5.2,9.1-8.4,13.5c-1.3,1.8-2.6,3.7-3.8,5.6c-2,2.9-4.4,5.2-6.9,7.7
	c-2.8,2.8-5.6,5.5-8.4,8.3c-0.7,0.7-1.5,1.4-2.2,2.2C140,749.7,140,749.7,130,777c-0.7,0-1.3,0-2,0c-1.9,13.4-1.9,13.4-1.3,26.8
	c0.5,4.1,0.3,8.2,0.3,12.2c-0.7,0-1.3,0-2,0c-4.6-8.7-8.4-17.3-11.7-26.5c-0.8-2.1-1.5-4.2-2.4-6.2c-1-2.6-1.7-5.3-2.3-8
	c-0.4-1.6-0.8-3.2-1.3-4.7c-2-6.7-2.7-12.7-2.6-19.6c0-1,0-2,0-3c0.2-11.8,1.5-23.1,6.4-33.9c0.7-2.8,0.7-2.8,1-5c0.7,0,1.3,0,2,0
	c0.1-0.7,0.2-1.4,0.3-2.2c0.8-3.1,2-5.1,3.7-7.8c0.6-1.2,1.2-2.4,1.8-3.6c2.6-5.2,5.4-10.3,8.2-15.4c0.7,0,1.3,0,2,0
	c0.2-0.7,0.5-1.4,0.8-2.1c2.7-6.1,6.9-10.9,11.2-15.9c-9.5,4.9-16.3,10.8-23,19c-0.7,0.8-1.4,1.7-2.1,2.5
	c-10,12.4-15.8,27.2-20.8,42.2C95,729,95,729,94,731c-1.4,8.5-2.5,16.5-1,25c0.2,1.2,0.4,2.4,0.6,3.6c0.1,0.8,0.3,1.6,0.4,2.4
	c-1.3,0-2.6,0-4,0c-4.7-5-7.4-11.7-10-18c-0.4-0.9-0.8-1.8-1.2-2.7c-4.3-9.8-8.3-20.5-8.8-31.3c-0.1-1.2-0.1-2.4-0.2-3.6
	c-0.5-16.5,3.6-32.4,14.7-45c3.7-4.3,3.7-4.3,7.2-8.8c0.6-0.8,0.6-0.8,1.3-1.6c0.7,0,1.3,0,2,0c0.3-0.6,0.5-1.2,0.8-1.8
	c5.8-10.5,20.7-18.4,31.2-23.2c1.7-0.8,3.4-1.7,5.1-2.6c3.1-1.6,6.2-3,9.4-4.4c7.5-3.3,14.6-6.8,21.3-11.6c2.2-1.4,4.3-2.4,6.6-3.5
	c7.2-3.8,12.3-11.9,16.2-18.8C186.1,584.4,186.5,583.7,187,583z"/>
<path class="st2" d="M858,145c3,0,3,0,4.6,1.4c1.8,2.2,3.6,4.4,5.4,6.6c0.6,0.7,1.2,1.4,1.8,2.1c4,4.8,6.6,9.5,9,15.2
	c1,2.2,2,4.3,3.2,6.4c8.5,17.6,11,46.4,4.9,65.1c-0.4,1-0.8,1.9-1.3,2.9c-0.4,1.1-0.9,2.1-1.4,3.2c-0.4,1-0.9,2-1.3,3
	c-0.4,0.8-0.7,1.7-1.1,2.5c-1.5,3.6-3.2,7.1-5,10.6c-4.8,9.6-8,18.5-8.7,29.2c-0.1,1-0.1,1-0.1,2.1c-0.2,3.4-0.2,6.3,0.9,9.5
	c0.5-0.6,0.9-1.2,1.4-1.8c1.3-1.6,2.5-3.2,3.8-4.9c1.4-1.8,2.8-3.6,4.1-5.4c0.6-0.6,1.1-1.3,1.7-1.9c0.7,0,1.3,0,2,0c0-1,0-2,0-3
	c0.7,0,1.3,0,2,0c0.3-0.6,0.5-1.1,0.8-1.7c1.3-2.6,2.7-5.1,4.2-7.6c0.5-0.9,1-1.8,1.6-2.7c0.5-0.7,0.9-1.4,1.4-2c0.7,0,1.3,0,2,0
	c0.1-0.9,0.2-1.9,0.4-2.9c0.6-3.1,0.6-3.1,2.6-5.1c8.7-20,9.5-40.4,10-62c2.4,0.3,2.4,0.3,5,1c3.6,5.4,5,11.3,6.5,17.6
	c0.8,3.3,1.7,6.2,3.6,9.1c9.6,16.7,6.2,41.6,1.4,59.4c-1.3,4.7-2.8,9.4-4.5,14c-0.2,0.7-0.5,1.3-0.7,2c-4.2,12.1-9,25-17.3,35
	c-0.7,0-1.3,0-2,0c-0.2,0.6-0.5,1.1-0.7,1.7c-4.3,7.9-12.5,15.4-19.3,21.3c-0.7,0-1.3,0-2,0c0,0.7,0,1.3,0,2c-1.7,1.4-3.5,2.7-5.2,4
	c-1,0.7-1.9,1.4-3,2.1c-2.8,1.9-2.8,1.9-5.1,3c-1.9,0.7-1.9,0.7-2.6,2.7c-1.4,2.9-3.5,4.2-6.1,6.1c-1.3,1.4-1.3,1.4-2.7,2.8
	C850,390,850,390,848,390c0,0.7,0,1.3,0,2c-0.7,0-1.3,0-2,0c-1,2-1,2-2,4c-0.7,0-1.3,0-2,0c-0.2,0.7-0.5,1.4-0.7,2.1
	c-1.4,3.1-3.1,5.6-5.2,8.3c-1.3,1.8-1.3,1.8-2.1,4.6c-0.7,0-1.3,0-2,0c0,0.7,0,1.3,0,2c-1-0.3-2-0.7-3-1c0.4-3.2,0.9-6.3,1.5-9.4
	c1.4-6.7,1.8-13.1,1.7-20c0-1.6,0-1.6,0-3.2c0-2.2,0-4.4,0-6.6c0-3.3,0-6.7,0-10c0-2.1,0-4.3,0-6.4c0-1.5,0-1.5,0-3
	c0-4.7-0.2-9.2-0.7-13.9c-0.6-6-0.7-11.9-0.7-17.9c0-1.2,0-2.3,0-3.5c0-2.4,0-4.9,0-7.3c0-3.6,0-7.3-0.1-10.9
	c-0.1-19.8,0.1-40.6,8.4-58.9c1.6-4,2.9-8,4.3-12.1c1.2-3.4,2.8-6.5,4.4-9.7c3.2-6.2,5.8-12.5,8.4-19c0.4-1.1,0.9-2.1,1.3-3.2
	c6-14.9,6.7-27,2.4-42.4C859.1,151.4,858.5,148.3,858,145z"/>
<path class="st2" d="M150.1,480.5c2.4,0.4,4.8,0.7,7.2,0.9c3.4,0.5,6.2,1.5,9.4,2.7c2.3,0.9,4.6,1.7,6.9,2.5
	c1.2,0.4,1.2,0.4,2.4,0.9c1.6,0.6,3.3,1.2,4.9,1.8c3.8,1.4,7.3,2.8,10.8,4.9c3,1.8,5.5,2.4,8.9,3.1c4.7,1.5,9,4.2,13.2,6.7
	c2,1,4,2,6,3c0.7,0.3,1.3,0.6,2,1c8.1,3.8,16.1,6.2,25,7c0,0.7,0,1.3,0,2c1,0.3,2,0.7,3,1c0,1.3,0,2.6,0,4c-1.6,0.9-3.2,1.8-4.8,2.8
	c-0.9,0.5-1.8,1-2.7,1.5c-8.5,4.2-17.5,6.7-26.7,8.8c-1.1,0.3-2.2,0.5-3.3,0.8c-13.1,3-26.1,4.3-39.5,5.1c7.8,4,7.8,4,16,7
	c-0.3,1.3-0.7,2.6-1,4c-6,1.7-11.9,2.6-18.1,3.1c-0.9,0.1-1.8,0.2-2.8,0.3c-6.5,0.6-12.9,0.8-19.5,0.6c-2.7-0.1-2.7-0.1-5.6,1
	c-1.9,0.1-3.8,0.2-5.7,0.3c-7.4,0.5-14.2,2.2-21.4,4.1c-1.8,0.5-3.7,1-5.5,1.5c-12.2,3.3-24,7.7-35.4,13.1c-1.3,0.6-2.7,1.2-4,1.8
	c-7.6,3.5-14.4,6.9-21,12.2c-0.7,0-1.3,0-2,0c-0.7,1.3-1.3,2.6-2,4c-0.7,0-1.3,0-2,0c-0.4,0.9-0.4,0.9-0.8,1.8
	c-1.2,2.2-2.4,3.6-4.1,5.3c-3.7,4.1-5.4,8.7-7.1,13.9c-0.4,1.2-0.8,2.4-1.2,3.6c-0.4,1.2-0.4,1.2-0.8,2.4c-1,0-2,0-3,0
	c0.5-4.7,1.2-9.2,2.5-13.8c0.6-2.6,0.9-5.2,1.2-7.8c1.2-7.8,4.8-14.5,8.3-21.4c0.7,0,1.3,0,2,0c0.1-0.8,0.1-0.8,0.1-1.6
	c1.3-3.6,4.1-5.6,6.9-8c4-3.3,4-3.3,7-7.4c0.7,0,1.3,0,2,0c0-0.7,0-1.3,0-2c1.6-1.1,1.6-1.1,3.8-2.4c2.4-1.5,4.3-2.7,6.3-4.7
	c2.1-2.1,4.3-3.3,6.9-4.7c2.4-1.4,4.5-3,6.7-4.6c5.5-3.9,11.1-6.2,17.3-8.6c1.7-0.7,3.4-1.3,5.1-2c1.8-0.7,3.7-1.4,5.5-2.1
	c0.9-0.3,1.7-0.7,2.6-1c5.2-2,10.4-3.7,15.8-5.2c1.9-0.5,1.9-0.5,2.9-1.6c-10.3-2.6-20.2-1.9-30.7-1.2c-1.8,0.1-3.6,0.2-5.4,0.3
	c-12.2,0.8-28.3,2.4-38.9,8.8c-0.3,0.7-0.7,1.3-1,2c-1.7,0-3.3,0-5,0c0-1.3,0-2.6,0-4c2.2-1.7,2.2-1.7,5.1-3.4
	c3.4-2.1,6.4-3.9,9.1-6.9c4.2-4.2,8.9-5.9,14.8-6.8c0.3-1,0.7-2,1-3c2.3-0.3,4.6-0.7,7-1c0-0.7,0-1.3,0-2c-0.7,0-1.4,0-2.2,0
	c-1,0-1.9,0-2.9,0c-0.9,0-1.9,0-2.8,0c-3.1-0.1-3.1-0.1-6.5-0.7c-4-0.5-7.5,0-11.4,0.8c-0.7,0.1-1.4,0.3-2.1,0.4
	c-7.1,1.5-14.5,3.1-21.1,6.3c-0.3,0.7-0.7,1.3-1,2c-1.7,0-3.3,0-5,0c0.3-3,1-4,3.2-6.1c0.9-0.7,1.8-1.4,2.7-2.1
	c0.9-0.7,1.8-1.4,2.7-2.1C41,502,41,502,44,501c0-0.7,0-1.3,0-2c0.8-0.3,1.6-0.7,2.4-1c1-0.4,2-0.9,3.1-1.4c1-0.4,2-0.9,3.1-1.3
	c2.6-1,2.6-1,3.5-3.3C85.4,477.7,118.2,475.2,150.1,480.5z"/>
<path class="st2" d="M1001,411c1,0,2,0,3,0c0.2,6.3-0.2,11.3-2.4,17.2c-0.3,0.7-0.5,1.5-0.8,2.2c-4.7,12.2-12.7,21.5-22.8,29.6
	c-0.8,0.7-1.6,1.4-2.5,2.1c-2.4,1.9-4.8,3.3-7.5,4.7c-3.8,2-7.6,4.1-11.3,6.3c-6.4,3.8-12.7,6.7-19.8,8.9c-1.4,0.5-2.8,1-4.3,1.4
	c-3.8,1.3-7.6,2.5-11.5,3.7c-7.1,2.2-14.2,4.5-21.3,7.1c-0.7,0.2-1.3,0.5-2,0.7c-3.3,1.2-5.8,2.3-8,5.1c1.2-0.1,1.2-0.1,2.5-0.2
	c4.5,0.3,7.6,2,11.6,4.1c1.4,0.7,2.8,1.5,4.2,2.2c0.7,0.3,1.3,0.7,2,1c2.2,1.1,4.5,2,6.8,2.9c1.8,0.9,3.6,1.9,5.4,2.9
	c13.3,6.7,27.4,8.3,42.1,8.4c1.6,0,1.6,0,3.3,0.1c6.5,0,11.2-0.7,17.2-3.3c1.3,0,2.6,0,4,0c0-0.7,0-1.3,0-2c3-0.5,3-0.5,6-1
	c0-0.7,0-1.3,0-2c1.6-1,3.3-2,5-3c0.7-0.7,1.3-1.3,2-2c1,0,2,0,3,0c-0.2,5.4-1.4,8.3-5.1,12.3c-4.1,3.7-8.6,7-13.9,8.7
	c0,0.7,0,1.3,0,2c-2.7,1.9-5.4,3.2-8.4,4.4c-3.6,1.5-3.6,1.5-6.8,3.5c-4.2,2.4-8.5,3.6-13.2,4.8c-1.6,0.4-3.2,0.8-4.8,1.3
	c-1,0.3-1,0.3-2.1,0.5c-1.9,0.5-1.9,0.5-3.8,1.5c-1.8,0.1-3.6,0.2-5.3,0.3c-1.6,0.1-1.6,0.1-3.2,0.1c-1.1,0-2.2,0.1-3.4,0.1
	c-2.2,0.1-4.4,0.1-6.6,0.2c-1,0-2,0.1-3,0.1c-2.6,0.1-2.6,0.1-5.5,1.2c-8.8,0.6-17.3-0.6-26-2.2c-1.2-0.2-2.4-0.4-3.6-0.6
	c-8-1.4-15.1-3.8-22.4-7.2c-0.8-0.3-1.5-0.7-2.3-1c-2-0.9-3.9-1.9-5.9-2.8c-0.7-0.3-1.4-0.7-2.1-1c-4.8-2.4-9-5.3-13.4-8.5
	c-4.5-2.9-9.5-4.7-14.5-6.6c0-0.7,0-1.3,0-2c-0.6-0.1-1.2-0.1-1.8-0.2c-1.2-0.1-1.2-0.1-2.4-0.3c-1.2-0.1-1.2-0.1-2.4-0.2
	c-2.5-0.3-2.5-0.3-4.7-0.8c-3.2-0.6-6.2-0.7-9.4-0.8c-1.3,0-2.6-0.1-3.9-0.1c-1.3,0-2.7-0.1-4-0.1c-9.2-0.2-18.3-0.6-27.4-1.5
	c2.5-3.8,5.6-5,9.6-6.9c0.7-0.3,1.4-0.7,2.1-1c1.4-0.7,2.8-1.4,4.2-2c2.8-1.3,5.5-2.7,8.3-4.1c2.6-1.2,5.3-2.2,8-3.2
	c2.1-0.8,2.1-0.8,4.8-2.3c4-1.8,7.7-2.1,12.1-2.4c0-0.7,0-1.3,0-2c-6.6,0-13.2,0-20,0c-0.3,1-0.7,2-1,3c-1.3,0-2.6,0-4,0
	c0.3-3,0.6-4.6,2.7-6.8c2.4-1.8,4.9-3.5,7.3-5.2c1.3-0.9,1.3-0.9,2.6-1.9c5.8-3.9,11.3-6.4,18-8.4c2.3-0.5,2.3-0.5,3.3-1.7
	c2-0.4,3.9-0.7,5.9-0.9c1.2-0.2,2.4-0.3,3.6-0.5c1.3-0.2,2.5-0.4,3.8-0.5c2.5-0.4,5-0.7,7.5-1.1c1.7-0.2,1.7-0.2,3.4-0.5
	c2.9-0.4,2.9-0.4,5.8-1.5c2.9-0.2,5.7-0.3,8.6-0.4c1.8-0.1,3.5-0.1,5.3-0.2c2.8-0.1,5.5-0.2,8.3-0.3c17.3-0.6,34-2.5,50.7-7.5
	c1.1-0.3,2.1-0.6,3.2-0.9c2.1-0.6,4.1-1.2,6.2-1.8c2.2-0.7,4.5-1.3,6.7-1.9c15.8-4.4,35.6-13.9,45-27.9
	C997.9,418.4,999.5,414.8,1001,411z"/>
<path class="st0" d="M236,738c3.6,0.2,4.8,0.8,7.3,3.4c1.7,2.6,1.7,2.6,1.7,5.6c0.7,0,1.3,0,2,0c0.3,0.6,0.5,1.2,0.8,1.8
	c4.2,9.3,8.6,18.5,13.4,27.5c1,2.3,0.9,4.2,0.8,6.7c0.7,0,1.3,0,2,0c3.9,10.2,6.6,19.7,7.4,30.7c0.4,5.2,1.1,10,2.2,15.1
	c2.4,11.7,2.2,24.1,0.9,35.9c-0.5,5-0.7,10-0.7,15c0,0.9,0,1.8,0,2.7c0,2.9,0,5.8,0,8.6c0,1.5,0,1.5,0,3c0,14.5,0.7,28.3,3.8,42.5
	c0.4,1.7,0.7,3.4,1,5.1c0.9,4.8,1.8,8.6,4.5,12.7c0.5,0.8,1,1.6,1.5,2.4c1.5,2.2,1.5,2.2,3.2,4.3c1.3,1.9,1.3,1.9,1.3,4.9
	c-3.2-0.6-4.9-1.6-7.3-3.8c-2.4-2.2-4.3-3.5-7.2-5.1c-3.7-2-6-4.7-8.6-7.8c-2.1-2.5-4.3-5-6.6-7.4c-3.1-3.5-5.9-6.9-8.3-10.9
	c-0.5-0.8-1.1-1.6-1.6-2.5c-3.5-5.2-6.3-10.3-8.5-16.2c-0.9-2.3-1.9-4.4-3-6.6c-10.1-22.7-6.3-52.6-4.9-76.8c-0.7,0-1.3,0-2,0
	c-0.1,0.6-0.2,1.3-0.2,1.9c-0.6,2.6-1.3,4.3-2.5,6.7c-2.2,4.8-3.5,9.7-4.9,14.8c-0.2,0.8-0.4,1.6-0.6,2.4c-0.6,2.4-1.2,4.8-1.8,7.2
	c-0.3,1.2-0.3,1.2-0.6,2.4c-1.5,6.5-1.8,12.8-1.7,19.5c0,1.1,0,2.1,0,3.2c0.1,8.3,0.5,16.3,4.9,23.5c1.4,2.4,1.4,2.4,1.4,5.4
	c-1,0.3-2,0.7-3,1c-1.9-2.2-3.8-4.4-5.8-6.6c-0.5-0.6-1.1-1.2-1.6-1.9c-2.5-2.9-4.7-5.7-6.8-8.8c-1.7-2.9-1.7-2.9-4.8-4.7
	c-1-1.7-1-1.7-1.9-3.8c-0.5-1.1-0.5-1.1-1-2.3c-0.3-0.8-0.7-1.6-1-2.4c-0.5-1.2-0.5-1.2-1.1-2.5c-0.7-1.6-1.4-3.2-2.1-4.9
	c-0.7-1.7-1.5-3.4-2.3-5.1c-7.1-16.4-6.8-35.4-0.5-51.9c0.6-1.6,1.3-3.2,2-4.9c0.8-2,1.5-4,2.2-6.1c4.8-14.7,12.7-25.7,22.3-37.5
	c8-9.9,13.4-19.6,15-32.3C235,739,235,739,236,738z"/>
<path class="st2" d="M940,265c3.8,0.8,3.8,0.8,5.4,2.8c0.4,0.8,0.8,1.5,1.2,2.3c0.6,1.2,0.6,1.2,1.3,2.5c1.5,3.1,2.8,6.2,4.2,9.4
	c0.4,0.7,0.8,1.4,1.2,2.1c4,7,4.7,13.6,5.4,21.5c0,3.3,0,3.3,1.4,4.5c0.1,1.6,0.1,3.1,0.1,4.7c0,1,0,1.9,0,2.9c0,1,0,2.1,0,3.1
	c0,1,0,2.1,0,3.2c0,7.4-0.3,14.7-1.1,22.1c-0.7,0-1.3,0-2,0c-0.1,1-0.1,1.9-0.2,2.9c-0.7,4.9-3.2,8.9-5.8,13.1c-0.7,0-1.3,0-2,0
	c-0.3,0.7-0.5,1.5-0.8,2.2c-1.2,2.8-2.5,5.1-4.2,7.6c-0.5,0.8-1,1.6-1.6,2.4c-0.5,0.6-0.9,1.2-1.4,1.8c-0.7,0-1.3,0-2,0
	c-0.3,0.8-0.3,0.8-0.7,1.7c-1.7,3-3.8,4.9-6.3,7.3c-1.1,1.1-2.2,2.2-3.3,3.4c-9.8,9.8-9.8,9.8-13.8,11.6c-2.4,1.3-2.7,2.6-3.9,5.1
	c-1.5,1.5-3.1,2.9-4.8,4.2c-4.4,3.9-8,7.9-11.2,12.8c1-0.6,2-1.2,3-1.9c3.1-2,6.3-2.7,9.9-3.6c20.5-5.1,36.5-17.7,51.1-32.5
	c0.8-0.8,1.6-1.5,2.4-2.3c7.2-7.6,11.8-15.4,14.6-25.5c0.6-2,0.6-2,2-5.2c2.1-1,2.1-1,4-1c1.6,1.6,1.2,3,1.2,5.2
	c-0.3,18.2-8.7,32.6-19.2,46.8c-0.4,0.6-0.9,1.2-1.3,1.7c-4.3,5.7-8.6,11.2-13.7,16.3c-0.7,0.9-1.3,1.8-2,2.7
	c-2.2,2.6-3.9,3.1-7,4.3c-0.3,0.6-0.6,1.2-0.9,1.9c-1.4,2.7-3.1,3.7-5.6,5.4c-0.8,0.5-1.6,1-2.4,1.6C929,437,929,437,927,437
	c0,0.7,0,1.3,0,2c-20,9.3-36.3,13.7-58.6,12.5c-10.1-0.5-19.5-0.6-29.4,1.5c-1.5,0.2-3.1,0.5-4.6,0.7c-7.7,1.1-14.9,2.1-22,5.4
	c-4.6,1.9-9.5,2.9-14.4,4c0.7-4,1.4-6.8,4-10c1.9-1,3.8-1.9,5.7-2.8c4.3-2.4,7.7-5.9,11.3-9.2c0.5-0.5,1-0.9,1.6-1.4
	c1.6-1.6,1.6-1.6,2.8-4c1.8-2.9,3.9-5,6.4-7.4c3.2-3.2,6.2-6.3,8.9-9.9c2.8-3.8,5.9-6.6,9.5-9.6c1.8-1.6,3.4-3.3,4.9-5.2
	c4-4.8,8.8-8.7,13.7-12.6c2.4-1.9,2.4-1.9,4.6-4.3c2.7-2.6,5.3-4.2,8.4-6.1c3.6-2.3,6.9-5.1,10.2-7.9c2.1-1.6,2.1-1.6,4.1-1.6
	c0-0.7,0-1.3,0-2c1.6-1.7,3.3-3.4,5-5c8.1-8.3,15.2-16.9,21.9-26.4c1-1.4,2-2.7,3-4.1c11.6-16.2,16.6-37,16.3-56.7
	c0-1.1,0-2.3,0-3.5C940.1,270.6,940,267.8,940,265z"/>
<path class="st3" d="M658,599c1.5,1,1.5,1,3,2c0,1.3,0,2.6,0,4c-2,0.7-4,1.3-6,2c0,0.3,0,0.7,0,1c1.2,0.4,2.5,0.8,3.8,1.2
	c1.2,0.4,1.2,0.4,2.5,0.8c1.9,0.6,3.9,1.2,5.8,1.8c5.5,1.7,9.9,3.4,14.4,6.9c2.6,1.9,5.5,3,8.6,4.2c0.7,0.3,1.3,0.7,2,1
	c0,1.3,0,2.6,0,4c-2,0-4,0-6,0c0,0.7,0,1.3,0,2c-1.7,0.7-3.3,1.3-5,2c0,0.7,0,1.3,0,2c0.7,0,1.5-0.1,2.2-0.1
	c10.9,0.1,18.6,4.6,27.8,10.1c-0.3,1.3-0.7,2.6-1,4c-4.3,0-8.6,0-13,0c-0.5,1-0.5,1-1,2c0.8,0.1,1.7,0.3,2.5,0.4
	c12,2.4,18.8,7.8,28,15.6c2.1,1.7,4,2.9,6.5,4c-0.3,1.7-0.7,3.3-1,5c-3-0.6-5.8-1.2-8.7-2.1c-4.9-1.3-9.4-0.6-14.3,0.1
	c0.5,0.2,1.1,0.4,1.7,0.6c23.3,9.1,23.3,9.1,30.3,16.4c0.9,0.8,1.8,1.7,2.7,2.6c6.3,6.7,6.3,6.7,6.3,9.4c2,1,2,1,4,2
	c0,0.7,0,1.3,0,2c0.7,0,1.3,0,2,0c2.5,2.6,3.9,4.1,4.2,7.8c-0.1,0.7-0.2,1.4-0.2,2.2c-2.8-0.4-4.3-1.2-6.8-2.9
	c-6.2-4.1-13-5.7-20.2-7.1c0.5,0.4,1,0.9,1.6,1.3c3.3,2.9,6.5,5.6,9.3,9.1c1.9,2.7,1.9,2.7,4.1,3.6c0,1,0,2,0,3c0.7,0,1.3,0,2,0
	c0.3,0.6,0.5,1.2,0.8,1.8c1,2.2,1,2.2,2.5,3.4c2.3,2.5,3.9,5.2,5.7,8.1c0.7,1.1,1.4,2.2,2.1,3.4c1,1.6,1,1.6,1.9,3.2
	c0.6,0.9,1.1,1.8,1.7,2.7c1.5,2.7,1.9,5.2,2.3,8.3c-1,0-2,0-3,0c-0.2-0.8-0.5-1.6-0.8-2.4c-1.4-3-2.2-3.4-5.2-4.6c-1-0.7-2-1.3-3-2
	c0-0.7,0-1.3,0-2c-6.6-2.3-13.3-4.3-20.1-6.2c-1-0.3-1.9-0.5-2.9-0.8c-2.3-0.7-4.7-1.3-7-2c0.5,0.7,0.9,1.4,1.4,2.1
	c5.5,8.4,9.6,15.8,11.1,25.8c0.5,3.1,0.5,3.1,1.3,6.3c3.3,14.1,2.5,28.5,2.2,42.8c-2,1-2,1-4,2c-0.2-0.8-0.4-1.6-0.7-2.5
	c-2.1-7.5-4.6-14.2-9.3-20.5c-0.7-0.3-1.3-0.7-2-1c0.3,1.2,0.3,1.2,0.5,2.5c2.4,18.1-6.2,35.1-16.3,49.5c-1.3,1.9-1.3,1.9-1.7,4.1
	c-0.8,2.8-2.5,4-4.6,6c-1.2,1.8-2.3,3.6-3.4,5.4c-5.1,8.2-5.1,8.2-8.6,11.6c-1.3,0-2.6,0-4,0c0.6-3.5,1.5-6.3,3.2-9.4
	c0.4-0.7,0.8-1.4,1.2-2.1c1.5-2.5,1.5-2.5,4-5.4c3.9-5.4,5.2-11.8,6.8-18.1c0.4-1.2,0.7-2.5,1.1-3.8c5.1-18.4,4.1-35.4,1.4-54
	c-0.1-0.7-0.2-1.5-0.3-2.3c-1.7-12-4.2-23.4-8.6-34.7c-1.7-4.8-3.1-9.8-4.5-14.7c-4.6-15.8-9.5-31.1-17.4-45.6
	C673,676,673,676,673,673c-0.7,0-1.3,0-2,0c-0.6-1.2-1.1-2.3-1.7-3.5c-1.5-3-3.1-5.8-4.9-8.6c-2.2-3.5-3.9-7.1-5.4-10.9
	c-0.6-1.5-1.3-3-1.9-4.4c-0.3-0.7-0.6-1.4-0.9-2.1c-1.3-2.8-2.7-5.6-4.1-8.4c-1-2-2-4.1-3-6.2c-0.5-1-0.5-1-1-2
	c-0.7-1.3-1.3-2.7-2-4c-1.7-3.5-3.5-6.7-5.8-9.8C638,610,638,610,638,608c-0.7,0-1.3,0-2,0c-3-4.4-3-4.4-3-7c-1-0.3-2-0.7-3-1
	c-3-4.3-3-4.3-3-7C637,588.3,648.7,594.8,658,599z"/>
<path class="st3" d="M530.3,291.8c1.3,0,2.6,0,3.9,0c10.7,0,19.2,1.4,28.8,6.2c0,1.6,0,3.3,0,5c-0.6,0.1-1.1,0.2-1.7,0.3
	c-5.4,1-9.1,2.6-13.5,5.8c-1.8,0.9-1.8,0.9-4,0.7c-1.8-0.8-1.8-0.8-3.1-2.8c-0.2-0.6-0.5-1.3-0.8-1.9c-3.4,0.9-6.7,1.9-10,3
	c0.3,1.1,0.6,2.1,0.9,3.2c0.7,2.6,1.4,5.1,2.1,7.8c-1,0.3-2,0.7-3,1c0,0.7,0,1.3,0,2c-1.1,1.1-2.2,2.3-3.4,3.4
	c-1.7,1.7-1.7,1.7-3.2,4c-2,2.7-3.7,4.7-6.4,6.7c-3.5,0.5-6.7,0.2-10.1,0c-11.9,0-23.6,6.2-33.3,12.6c-2.8,1.5-5.2,2.1-8.4,2.6
	c-1.5,0.2-1.5,0.2-3,0.5c-0.7,0.1-1.5,0.2-2.2,0.3c0,0.7,0,1.3,0,2c3.3,0,6.6,0,10,0c-0.4,5.1-2.8,7.3-6,11c-0.5,1.5-0.5,1.5-1,3
	c-1.9,2.2-1.9,2.2-4,4c-0.7,0-1.3,0-2,0c0,0.7,0,1.3,0,2c-3.8,3.9-8.3,7.2-13,10c-1,0-2,0-3,0c0,0.7,0,1.3,0,2c3.4,0.2,3.4,0.2,7,0
	c0.7-0.7,1.3-1.3,2-2c1,0,2,0,3,0c-0.3,7.4-2.1,13.2-5,20c-0.7,2-1.4,4-2,6c-0.7,0-1.3,0-2,0c-0.3,1.2-0.3,1.2-0.6,2.5
	c-1.9,4.6-4.8,8.1-8.4,11.5c-0.7,0-1.3,0-2,0c-0.3,1-0.7,2-1,3c-7.2,5.3-14,8.4-23,8c-1.2-3.6-0.7-4.3,0.9-7.7
	c0.4-0.8,0.8-1.6,1.2-2.4c0.3-0.6,0.6-1.2,0.9-1.9c-0.5,0.2-1,0.4-1.5,0.7c-10.1,3.9-21,3-31.5,0.3c-1-0.7-2-1.3-3-2
	c0.8-2,0.8-2,2-4c1.2-0.1,2.5-0.2,3.8-0.2c8.1-0.6,16.1-5.5,21.7-11.2c2.1-2.7,4-5.4,5.6-8.5c-1.2,0-2.4,0.1-3.6,0.1
	c-15.7,0.3-15.7,0.3-23.4-3.1c0-0.7,0-1.3,0-2c-1.1-0.1-1.1-0.1-2.3-0.3c-4.1-1.1-5.4-3.5-7.5-7c-2.1-4.9-1.7-9.5-1.2-14.7
	c0.1-1.5,0.1-1.5,0.2-3.1c0.8-6.8,2.8-11.3,7-16.7c1.8-2.3,1.8-2.3,3.4-5c0.5-0.7,0.9-1.5,1.4-2.2c0.7,0,1.3,0,2,0c0,1,0,2,0,3
	c0.3,9.4,1.4,15.7,8.5,22.4c6.8,4.4,13.6,4.3,21.5,3.6c3.3-0.9,6.5-1.9,9.7-3.1c2.3-0.9,2.3-0.9,4.3-0.9c0-0.7,0-1.3,0-2
	c1.6-1.4,3.3-2.7,5-4c0.3-0.3,0.7-0.7,1-1c-0.9,0.2-1.7,0.3-2.6,0.5c-11.1,1.7-20.9,0.8-30.2-5.8c-1.4-1.3-1.4-1.3-3.1-3.7
	c0-1.3,0-2.6,0-4c2.2,0.5,4.1,1.1,6.2,2.1c6.9,2.3,14.7,0.8,21.8-0.1c0-0.7,0-1.3,0-2c2-0.7,4-1.3,6-2c-1-0.1-1.9-0.1-2.9-0.2
	c-7.6-0.7-14.6-1.9-21.8-4.6c-0.7-0.2-1.3-0.5-2-0.7c-6.8-2.7-10.6-7.3-14.3-13.5c-1-2.9-1.1-4.7-1.1-7.7c0-0.8,0-1.6,0-2.4
	c0-0.6,0-1.2,0-1.9c3.5,0.6,4.8,1.6,7,4.4c2.1,2.8,3.7,4.2,7,5.6c4.2,0.5,8.3,0.4,12.5,0.4c1.1,0,2.2,0,3.4,0.1
	c8.1,0,14.6-1.5,22.1-4.4c1-0.4,1.9-0.7,2.9-1.1c1.6-0.7,3.3-1.3,4.9-2c1.9-0.8,3.8-1.4,5.8-2c2.6-0.6,2.6-0.6,3.4-2.9
	c-6.6,0-13.2,0-20,0c1-4,1-4,3.7-5.9c1.2-0.6,2.3-1.2,3.5-1.8c1.7-0.9,1.7-0.9,3.4-1.8c11.3-4.6,23.4-3.7,35.3-2.7
	c1.5,0.1,3,0.2,4.4,0.3c3.6,0.3,7.1,0.5,10.7,0.8c0-0.7,0-1.3,0-2c-2.6-0.3-5.3-0.7-8-1c-0.5-2.5-0.5-2.5-1-5
	C504.5,291.8,517.4,291.8,530.3,291.8z"/>
<path class="st2" d="M330,851c4.8-0.5,7.7,1.3,11.6,3.8c0.6,0.4,1.1,0.7,1.7,1.1c6.2,4,6.2,4,8.7,6.1c0,0.7,0,1.3,0,2
	c0.6,0.3,1.2,0.5,1.8,0.8c2.3,1.2,4.3,2.5,6.2,4.2c0,0.7,0,1.3,0,2c0.6,0.2,1.1,0.5,1.7,0.7c4,2.3,6.9,4.9,8.3,9.3c0.7,0,1.3,0,2,0
	c0,0.7,0,1.3,0,2c0.6,0.2,1.2,0.5,1.8,0.7c2.7,1.5,4,3.2,5.9,5.6c0.6,0.8,1.2,1.5,1.8,2.3c1.4,2,2.5,4,3.6,6.3c0.7,0,1.3,0,2,0
	c0,0.7,0,1.3,0,2c0.7,0,1.3,0,2,0c1.5,1.5,1.5,1.5,3.1,3.4c0.5,0.6,1.1,1.3,1.6,1.9c1.2,1.7,1.2,1.7,1.2,3.7c0.7,0,1.3,0,2,0
	c1.6,1.6,1.6,1.6,3.4,3.7c0.6,0.7,1.2,1.5,1.9,2.2c1.3,1.6,2.6,3.2,3.9,4.8c2.1,2.6,4.4,4.9,6.9,7.3c4.6,4.5,9.1,9.1,13.3,14.1
	c2.3,2.6,4.7,5,7.2,7.4c1.5,1.6,1.5,1.6,3.5,4.1c3.5,4.3,7.8,7.9,12.3,11.1c0.6,0.5,1.2,0.9,1.8,1.4c0,0.7,0,1.3,0,2
	c0.9,0.3,1.8,0.5,2.7,0.8c3.3,1.2,5.8,2.6,8.7,4.5c1,0.6,1.9,1.3,2.9,1.9c1.5,1,3.1,2,4.6,3.1c10.5,6.8,22.4,12.4,34.1,16.7
	c1.1,0.4,2.3,0.9,3.5,1.3c19.4,6.8,41.2,6.9,61.5,7.7c0,1,0,2,0,3c-2.9,1.4-5.6,1.4-8.8,1.7c-1,0.1-1,0.1-2.1,0.2
	c-2.3,0.2-4.6,0.4-6.9,0.6c-0.8,0.1-1.6,0.1-2.4,0.2c-15.3,1.3-30.5,2.1-45.8,2.3c-1.2,0-1.2,0-2.5,0c-5.6,0.1-11.2,0.2-16.8,0.2
	c-1.9,0-3.7,0-5.6,0.1c-19.1,0.2-31.8-3.6-47.7-14.1c-2.8-1.8-5.6-3.5-8.5-5.2c-15.7-9.4-28.8-21.9-39.7-36.4
	c-2-2.6-4.1-5.1-6.2-7.6c-7.8-9.4-14.1-20.3-18.9-31.5c-0.8-1.8-1.7-3.6-2.6-5.4c-1.4-2.9-2.4-5.6-3.3-8.7c-0.5-1.7-0.5-1.7-1-3.4
	c-0.2-0.6-0.4-1.2-0.6-1.9c-1.2-4-2.4-8-3.7-12.1c-0.4-1.2-0.4-1.2-0.7-2.5c-1.3-4.2-2.8-7.8-5.2-11.5c-0.5-1.1-0.9-2.3-1.4-3.4
	c-2.1-4.9-4.1-8.6-8.6-11.6C329.8,853.4,329.8,853.4,330,851z"/>
<path class="st4" d="M646,525c5.4,0.5,8.4,1.1,13,4c1.5,0.9,3,1.8,4.5,2.6C688,546,688,546,691,553c0.7,0,1.3,0,2,0
	c1.6,2.5,1.6,2.5,3,5c-0.6-4.9-1.6-9.3-3-14c-0.7,0-1.3,0-2,0c-0.7-2-1.3-4-2-6c-0.7,0-1.3,0-2,0c-0.5-2.5-0.5-2.5-1-5
	c5.3,0.6,9.3,2.4,13.9,4.8c0.7,0.3,1.4,0.7,2.1,1c4.7,2.4,8.9,5,13,8.2c0,0.7,0,1.3,0,2c0.5,0.2,1.1,0.5,1.6,0.7
	c9.8,5.4,17.1,15.3,23.4,24.3c0.7,0.9,1.4,1.9,2.1,2.8c6.9,9.2,11.8,19,16.6,29.4c4.1,8.8,8.6,17.3,13.2,25.8c0.4,0.7,0.7,1.3,1.1,2
	c7.2,13,16.1,25.7,26.9,36c0.7,0.8,1.5,1.6,2.2,2.4c4.5,4.3,9.4,8.2,14.8,11.4c0.6,0.4,1.3,0.8,1.9,1.2c0,0.7,0,1.3,0,2
	c-8.8-1-16.3-4.5-24.2-8.2c-2.2-1-4.4-1.9-6.7-2.9c-20.4-9.2-37.5-24.1-51.2-41.6c-1.8-2.3-3.8-4.3-5.9-6.3c-1-1.7-2-3.3-3-5
	c-1.1-1.4-2.2-2.8-3.3-4.2c-2.4-3-4.6-6.1-6.8-9.4c-2.7-4.1-5.7-7.7-8.9-11.4c0.4,6.4,1.5,12.3,3.3,18.5c0.7,2.5,1.2,5,1.7,7.5
	c-1.3,0.3-2.6,0.7-4,1c-0.7-0.8-1.3-1.7-2-2.6c-2-2.4-4.1-4.5-6.5-6.5c-13.6-11.6-23.9-23.7-31.5-39.9c-0.1,4.5-0.1,4.5,0.5,8.9
	c0.8,3.3,0.6,6.6,0.5,10.1c-1,0-2,0-3,0c-1.1-2.1-2.3-4.1-3.4-6.2c-0.9-1.7-0.9-1.7-1.9-3.5c-3.7-7.2-3.7-7.2-3.7-11.3
	c-0.7,0-1.3,0-2,0c-2.3-14-4.2-28-6-42c-1-0.3-2-0.7-3-1C646,528,646,528,646,525z"/>
<path class="st2" d="M280,810c3,0.6,4.4,1.3,7,3c0.5,1,1.1,2.1,1.6,3.1c2.7,5,7.1,8.2,11.4,11.9c9.8,8.9,17.4,21.2,22.1,33.6
	c0.9,2.4,2,4.7,3.1,7c1.7,3.7,2.6,7.2,3.3,11.1c0.6,2.6,0.6,2.6,2,5.7c1.5,3.6,2.5,7.1,3.4,10.9c1.8,6.9,4.2,13.3,7.1,19.8
	c0.8,1.8,1.6,3.6,2.4,5.4c0.9,2,1.8,3.9,2.6,5.9c0.4,0.9,0.8,1.9,1.3,2.8c2.5,5.6,5.3,10.8,8.7,15.9c0.6,0.8,1.1,1.7,1.7,2.5
	c7.5,10.7,14.7,20.9,24.9,29.1c0.4,0.4,0.9,0.9,1.4,1.3c0,0.7,0,1.3,0,2c0.6,0.3,1.2,0.5,1.8,0.8c2.3,1.2,4.2,2.6,6.2,4.2
	c0.8,0.6,1.6,1.2,2.4,1.9c1.9,1.5,3.8,3.1,5.7,4.6c6.9,5.6,13.4,9.6,21.9,12.5c0,1.3,0,2.6,0,4c-7-1-14-2-21-3
	c-1.1-0.2-1.1-0.2-2.3-0.3c-1.8-0.3-3.7-0.5-5.5-0.8c-1-0.1-2-0.3-3-0.4c-2.2-0.4-2.2-0.4-3.2-1.4c-2.6-0.5-5.2-0.9-7.8-1.3
	c-3.2-0.7-6-1.7-9-2.9c-2.2-0.8-4.4-1.6-6.6-2.4c-1.1-0.4-1.1-0.4-2.2-0.8c-1.5-0.5-3-1.1-4.5-1.6c-5.6-2-5.6-2-7.8-3.1
	c0-0.7,0-1.3,0-2c-0.7-0.3-1.4-0.5-2.2-0.8c-14.5-6.1-29.2-19.7-37-33.3c-0.7-1.2-0.7-1.2-1.4-2.4c-0.5-0.8-0.9-1.6-1.4-2.4
	c-0.5-0.7-0.9-1.4-1.4-2.2c-17.3-31.4-17.2-72.6-18.8-107.4c-0.1-1.4-0.1-2.8-0.2-4.2c-0.1-1.2-0.1-2.4-0.2-3.7
	c-0.8-6.4-2.8-13.8-7.4-18.5C279.4,811.9,279.4,811.9,280,810z"/>
<path class="st2" d="M211,660c4,1.7,5,3.6,6.8,7.5c1.9,4,4.3,7.8,6.6,11.6c8.4,15.5,8.5,40,4.6,56.9c-1,2.5-2.2,4.6-3.7,6.8
	c-1.5,2.6-2.5,5.2-3.5,8c-1.4,3.6-3.1,7-4.8,10.5c-0.3,0.7-0.7,1.4-1,2.1c-0.3,0.7-0.7,1.4-1,2c-0.3,0.6-0.6,1.2-0.9,1.8
	c-1.1,1.9-2.5,3.2-4,4.7c-0.7,1.4-0.7,1.4-1.3,2.8c-1.9,3.6-4.3,6.3-7.2,9.3c-3.3,3.4-6.1,6.8-8.5,10.9c-1,1.2-2.1,2.4-3.2,3.6
	c-4.3,4.9-8.1,10-11.8,15.4c-0.5,0.8-1.1,1.6-1.7,2.4c-4,6.2-6.2,12.6-8.4,19.6c-1,3-1,3-2,4c-0.4,2.7-0.8,5.4-1.1,8.2
	c-0.1,1.2-0.1,1.2-0.3,2.5c-1,10.1-0.9,20.2-0.7,30.3c-5-1.7-6.5-7-8.8-11.5c-9.9-20.6-14.5-43.3-11.2-66.2c0.1-1.1,0.1-1.1,0.3-2.2
	c0.2-1.7,0.5-3.4,0.7-5.2c0.7,0,1.3,0,2,0c0.1-0.9,0.1-1.8,0.2-2.8c0.8-5.8,3.5-11,5.8-16.2c0.3-0.8,0.7-1.7,1-2.5
	c1.8-4.3,3.9-8,6.7-11.7c1.7-2.4,2.9-5,4.2-7.7c1.4-2.8,3.1-5.4,4.9-8.1c1.2-1.9,1.2-1.9,1.9-4.1c1.9-4.3,4.6-7.9,7.2-11.8
	c0.6-0.8,1.2-1.7,1.8-2.6c3.1-4.4,6.2-8.9,9.4-13.2c7.7-10.6,13.6-20.5,16.9-33.3c0.2-0.6,0.3-1.3,0.5-1.9c0.8-3.4,0.9-6.9,1-10.3
	c0.1-1.1,0.1-1.1,0.1-2.3c0.1-1.8,0.2-3.7,0.3-5.5c0.7,0,1.3,0,2,0C211,661.3,211,660.7,211,660z"/>
<path class="st5" d="M751,517c1.2,0.2,1.2,0.2,2.4,0.4c3.4,0.5,6.7,0.9,10.1,1.1c26.9,2.4,50.4,9.4,74.5,21.4c0,0.7,0,1.3,0,2
	c0.5,0.1,1.1,0.2,1.7,0.3c3.1,0.9,5.2,2.5,7.8,4.4c8.1,5.5,16.3,10.7,25.5,14.4c0.6,0.3,1.2,0.7,1.9,1c6.4,3.3,12.7,3.9,19.8,4.6
	c3.4,0.4,3.4,0.4,5.4,1.4c-0.3,1.3-0.7,2.6-1,4c-0.6,0.1-1.2,0.3-1.8,0.4c-0.8,0.2-1.6,0.4-2.4,0.5c-0.8,0.2-1.6,0.3-2.4,0.5
	c-2.3,0.5-2.3,0.5-4,1c-3.4,0.7-6.7,0.7-10.2,0.8c-0.7,0-1.5,0-2.3,0.1c-2.4,0.1-4.8,0.1-7.2,0.2c-1.6,0-3.2,0.1-4.9,0.1
	c-4,0.1-7.9,0.2-11.9,0.3c17.9,14.5,36.8,24.9,59,31c1.6,0.4,3.1,0.9,4.7,1.3c14.4,4.1,27.5,6.7,42.5,6.8c0.9,0,1.7,0,2.6,0
	c5.1,0,9.3-0.7,14.2-2.2c3.4-0.1,3.4-0.1,6,0c-0.2,1.9-0.2,1.9-1,4c-13,6.9-29.4,7.5-43.8,7.3c-0.7,0-1.5,0-2.2,0
	c-17-0.1-32.7-1.3-49-6.3c-1.6-0.5-1.6-0.5-3.3-0.9c-6.2-1.8-12.2-3.9-18.2-6.1c-0.7-0.2-1.3-0.5-2-0.7c-3.8-1.4-7.1-3.1-10.5-5.2
	c-1.6-0.7-3.2-1.3-4.8-1.9c-4.1-1.6-7.7-3.5-11.3-5.9c-1.7-1.1-3.5-2.1-5.2-3.1c-3.7-2.1-7.2-4.6-10.7-7.1c-2.8-1.9-5.6-3.8-8.4-5.7
	c-13.7-8.9-25.5-18.5-33.9-32.8c-3.8-6.3-7.5-12.3-13.6-16.6c-2.8-2.6-2.8-2.6-5-5c0-0.7,0-1.3,0-2c-0.6-0.3-1.2-0.6-1.8-0.9
	C754,523,754,523,751,521C751,519.7,751,518.4,751,517z"/>
<path class="st3" d="M590.3,20.8c2.7,1.2,5.5,2.2,8.4,3.1C604.5,26,609,29.3,614,33c1.6,1.1,3.2,2.2,4.8,3.2c0.7,0.5,1.5,1,2.2,1.5
	c1.5,1,3,1.8,4.5,2.7c5.8,3.7,10.7,8.7,15.4,13.6c0.7,0.7,1.4,1.3,2.1,2c3.7,3.6,7.2,7.2,10.6,11.2c2.2,2.5,4.3,4.7,6.9,6.8
	c3.3,2.7,6,5.7,8.8,9c1.7,2,1.7,2,3.5,3.8c7.9,8.2,12.4,19.5,16.4,30.1c0.9,2.2,1.8,4.4,2.9,6.5c3.6,8,6.6,16.8,7,25.7
	c0.1,1.2,0.1,2.5,0.2,3.7c0.3,10.7,0.3,10.7-1.7,13.2c-0.5,0.3-1,0.7-1.5,1.1c-3-1-3-1-4.2-3c-0.3-0.8-0.7-1.6-1-2.4
	c-0.3-0.8-0.7-1.6-1-2.4C689,157,689,157,689,155c-0.7,0-1.3,0-2,0c-0.3-0.6-0.6-1.2-1-1.8c-2-3.7-4-7.3-6.4-10.7
	C678,140,678,140,678,138c-0.7,0-1.3,0-2,0c-0.4-0.9-0.8-1.8-1.3-2.7c-1.6-3.1-3.4-5.8-5.6-8.6c-8.8-11.9-8.8-11.9-11.2-18.5
	c-0.3-0.8-0.7-1.5-1-2.3c-1-0.3-2-0.7-3-1c-1.4-2-2.7-4-4-6c-5.8-6.4-12-12-19-17c-1.4-1.1-1.4-1.1-2.8-2.3
	c-2.2-1.9-2.2-1.9-5.2-2.7c-1.7-1.7-3.3-3.3-5-5c-4.1-3.4-8.4-6.3-13.1-8.9c-2.2-1.3-4.2-2.9-6.3-4.4c-5.6-4-11.6-6.5-17.9-9.1
	c-3.1-1.3-5.8-2.8-8.6-4.6c-2.3-0.7-4.7-1.4-7-2c-3.5-1.4-6.9-3-10.4-4.5c-6.4-2.9-12.3-5.1-19.2-6C533,32,533,32,530.6,31
	c-3.1-1.2-6-1.6-9.2-2.1c-3.3-0.5-6.2-0.9-9.4-1.9c-11.2-1.8-22.3-2.3-33.6-2.2c-2.4,0-4.9,0-7.3,0c-1.6,0-3.1,0-4.7,0
	c-0.7,0-1.5,0-2.2,0c-3.4-0.3-3.4-0.3-6.2,1.2c-1.7,0-3.3,0-5,0c0-1.3,0-2.6,0-4c0.7-0.2,1.5-0.3,2.2-0.5c5.2-1.2,10.1-2.6,15.1-4.5
	c8.8-3.1,18.2-3.7,27.4-4.7c2.4-0.3,2.4-0.3,5.3-1.3C530.6,7.5,564.7,9.1,590.3,20.8z"/>
<path class="st2" d="M638,29c4.4-0.1,8.9-0.1,13.3-0.2c1.9,0,1.9,0,3.8-0.1c10.1-0.1,19.2,0.8,27.7,6.7c0.9,0.6,1.7,1.2,2.6,1.7
	c0.9,0.6,1.7,1.2,2.6,1.8c1,0.6,1.9,1.2,2.9,1.8c3.5,2.4,6.3,5.1,9.2,8.2c0.5,0.5,1,1,1.6,1.6c1,1,2,2,3,3c1.2,1.2,2.3,2.4,3.5,3.5
	c3.1,3.1,6,6.5,8.8,9.9c0.6,0.7,1.3,1.5,1.9,2.2c8.7,10.4,14.7,21.9,19.1,34.8c0.5,1.5,0.5,1.5,1.1,3.1c3.6,11.7,3.5,23.1,3.5,35.3
	c0,13.9,0.4,27,3.4,40.6c0.2,1,0.4,2,0.6,3c0.4,2,0.9,4,1.4,6c-0.7,0-1.3,0-2,0c0,1,0,2,0,3c-8.5-0.8-12.3-6.8-17.5-13
	c-7.8-9.8-16.2-21-19.9-33.1c-1.1-3.6-2.5-7-4.1-10.4c-3.1-7.3-4.8-14.8-6.6-22.4c-2.7-11.5-7.6-21.6-13.1-32c-0.9-2-0.9-2-0.9-5
	c-0.7,0-1.3,0-2,0c-0.3-0.5-0.6-1.1-0.8-1.7c-2.7-5.1-5.8-9.7-9.4-14.2c-1.6-2-3-4-4.4-6.1C660,47.3,649,38.2,638,33
	C638,31.7,638,30.4,638,29z"/>
<path class="st3" d="M726,536c4,0,4,0,5.9,1.8c0.7,0.7,1.4,1.4,2.1,2.2c1.7,1,3.5,2,5.2,2.9c4.2,2.2,7.8,4.5,11.5,7.4
	c3.5,2.6,7.2,4.9,10.9,7.2c3.9,2.5,7.8,5,11.6,7.7c4.7,3.2,9.5,5.9,14.5,8.5c2.2,1.3,3.5,2.6,5.3,4.3c3.1,1.2,3.1,1.2,6,2
	c0,0.7,0,1.3,0,2c0.7,0.2,1.4,0.5,2.2,0.7c3.2,1.4,5.2,3.2,7.7,5.6c2.8,2.6,5.7,5.2,8.7,7.6c1.2,1,1.2,1,2.4,2.1c0,0.7,0,1.3,0,2
	c0.6,0.3,1.2,0.5,1.8,0.8c6.7,3.6,13.8,11.8,16.1,19.1c0,0.7,0,1.4,0.1,2.1c-1,1-1,1-3.7,1.1c-1.7,0-1.7,0-3.3,0c-1.1,0-2.2,0-3.3,0
	c-0.9,0-1.7,0-2.6,0c2.3,4,4.4,6.2,8,9c0.7,0.9,1.4,1.9,2.2,2.8c2.9,3.6,6.5,5.9,10.3,8.5c2.5,1.7,2.5,1.7,4.9,3.7
	c2.9,2.3,6,4.1,9.2,5.9c0.6,0.3,1.2,0.7,1.9,1.1c1.3,0.7,2.5,1.4,3.8,2.1c1.5,0.9,3.1,1.7,4.6,2.6c6.4,3.6,13,6.7,19.7,9.8
	c2.2,1,4.3,2.1,6.5,3.2c3.4,1.6,6.7,2.4,10.4,3.1c1.2,0.3,2.5,0.5,3.8,0.8c0.9,0.2,1.9,0.4,2.9,0.6c0,1.3,0,2.6,0,4
	c-23.4,2.2-42.4-1.2-63.1-12.2c-0.7-0.4-1.4-0.8-2.2-1.2c-5-2.7-10-5.5-14.9-8.5c-0.6-0.4-1.2-0.7-1.8-1.1c-3.5-2.1-6.7-4.5-9.9-7.1
	c-1.1-0.5-2.3-1-3.4-1.6c-9-4.3-17.2-11.7-24-18.9c-1.6-1.7-3.3-3.1-5.1-4.6c-10.5-9.1-19.6-18.8-27.3-30.3
	c-1.7-2.5-3.5-4.9-5.4-7.4c-3.1-4.2-5.8-8.6-8.4-13.2c-1.2-2.1-1.2-2.1-2.9-3.6c-1.8-1.8-2.6-3.6-3.6-5.9
	c-3.6-7.5-8.6-14.4-14.7-20.2c-0.7-0.8-1.5-1.5-2.2-2.3C724.2,537.8,724.2,537.8,726,536z"/>
<path class="st3" d="M722,187c5.6,0.3,8.4,3.8,12.2,7.4c0.7,0.6,1.3,1.3,2,1.9c1.3,1.3,2.7,2.6,4,3.9c1.5,1.5,3.1,3,4.7,4.5
	c8.9,8.6,16.2,18.4,22.7,28.9c1.2,1.9,2.5,3.8,3.8,5.7c1.8,2.8,2.8,5.5,3.7,8.7c0.7,0,1.3,0,2,0c0.5,3,0.5,3,1,6c1,0,2,0,3,0
	c-0.1-1.3-0.1-1.3-0.2-2.6c0.2-4,1.3-5.9,3.5-9.2c0.6-1,1.2-1.9,1.9-2.9c0.6-0.7,1.2-1.4,1.8-2.2c1,0,2,0,3,0
	c0.1,1.1,0.1,2.3,0.2,3.4c0.9,14,5.1,23.7,13.8,34.6c1.1,1.9,1.1,1.9,1.9,3.7c1.1,2.3,2.2,4.6,3.4,6.9c0.5,0.9,0.9,1.8,1.4,2.7
	c0.4,0.8,0.9,1.6,1.3,2.5c1,2.3,1,2.3,1,6.3c0.7,0,1.3,0,2,0c0.3,1.1,0.7,2.2,1,3.4c0.4,1.5,0.9,3,1.3,4.5c0.2,0.7,0.4,1.5,0.6,2.2
	c0.2,0.7,0.4,1.5,0.7,2.2c0.2,0.8,0.4,1.5,0.7,2.3c0.5,1.6,1,3.2,1.5,4.8c2.1,6.2,2.6,11.7,2.4,18.3c0,1.4,0,1.4,0,2.9
	c-0.6,33.4-0.6,33.4-5.2,40.4c-0.3,1.1-0.6,2.1-0.9,3.2c-1.8,6.3-5.1,12-8.1,17.8c-0.4,0.7-0.7,1.4-1.1,2.1c-2.7,5-6.3,9.4-9.9,13.9
	c-1-0.3-2-0.7-3-1c0.6-3.9,1.4-7.6,2.5-11.4c1.6-6.3,2-12.3,2.2-18.8c0.2-2.9,0.6-5.1,1.3-7.8c1.1-4.2,1.4-8.2,1.4-12.5
	c0-0.8,0-1.5,0-2.3c-0.1-7-1.6-13.5-3.4-20.2c-1-3.7-1.5-7.3-2-11c-0.6-4.5-1.6-7.7-3.9-11.7c-1.5-3.1-2.5-6.4-3.6-9.7
	c-2-6.2-4.4-11.9-7.6-17.6c-0.4-0.7-0.8-1.4-1.2-2.2c-0.9-1.6-1.9-3.2-2.8-4.8c-0.2,0.8-0.3,1.6-0.5,2.4c-1.4,6-2.6,10.8-6.5,15.6
	c-1.3-0.3-2.6-0.7-4-1c-0.2-0.9-0.4-1.9-0.6-2.8c-0.7-3.5-1.5-7-2.2-10.5c-0.3-1.5-0.6-3-1-4.5c-0.5-2.2-0.9-4.3-1.4-6.5
	c-0.1-0.7-0.3-1.3-0.4-2c-1-4.5-2.5-8.5-4.4-12.7c-0.7-2.3-1.3-4.6-1.9-6.9c-1.6-5.7-3.4-10.8-6.1-16.1c-0.6-1.2-1.1-2.3-1.7-3.5
	c-2.1-4.2-4.2-8.3-6.3-12.5c-0.4-0.7-0.7-1.5-1.1-2.2c-4.4-8.7-9-16.9-14.9-24.8C722,190.5,722,190.5,722,187z"/>
<path class="st2" d="M162.2,568.6c1,0,2,0,3.1,0c7.3,0.1,13.2,0.8,19.7,4.4c-1.7,7.5-6.4,13.9-12,19c-3.4,1.5-3.4,1.5-6,2
	c0,0.7,0,1.3,0,2c-14.2,8.2-28.1,15.9-44.2,19.4c-14.4,3.2-27,8.9-38.8,17.6c-0.8,0.4-1.5,0.9-2.3,1.3c-3.3,2-6.3,4.3-9.3,6.7
	c-0.6,0.5-1.2,1-1.8,1.5C59.4,651.4,47.9,660.7,42,674c-1,0-2,0-3,0c-0.6-10.7,0.6-21.6,6-31c1.2-2.3,1.9-4.7,2.6-7.2
	c2.6-7.4,7.4-12.9,12.4-18.8c0.5-0.7,1.1-1.4,1.6-2.1c3.4-4.2,7.3-7.5,11.6-10.8c1.8-1.4,3.6-2.9,5.4-4.5
	c12.8-10.9,29.3-17.3,45-22.9c2.2-0.8,4.3-1.6,6.4-2.5c3.7-1.4,7.4-2.2,11.3-2.8c2.7-0.5,2.7-0.5,5.7-1.6
	C152.1,568.5,157.1,568.6,162.2,568.6z"/>
<path class="st6" d="M209,331c0.6,0.1,1.2,0.2,1.8,0.4c1.3,0.3,1.3,0.3,2.5,0.5c0.9,0.2,1.8,0.4,2.8,0.6c1.8,0.4,3.6,0.7,5.4,1
	c5.1,0.9,9.5,2.3,14.2,4.6c2.3,1.1,2.3,1.1,5.1,1.9c9.2,3.3,17.7,9.9,25.1,16.1c1.3,1.1,1.3,1.1,2.6,2.2c5.1,4.4,10.1,8.9,13.4,14.8
	c0,1,0,2,0,3c1.5,0.5,1.5,0.5,3,1c1.6,2,3,4,4.4,6.1c0.4,0.6,0.8,1.2,1.2,1.8c2,2.9,3.9,5.9,5.6,9c1.4,2.4,2.6,4.1,4.4,6.1
	c2.5,3.1,3,5,3.3,8.9c0.7,0,1.3,0,2,0c-0.2-3.2-0.5-6.3-0.8-9.5c-0.1-0.9-0.1-1.8-0.2-2.7c-0.5-6-1.6-12.3-6.1-16.8c0-1.7,0-3.3,0-5
	c4.3,0.5,6.2,2.9,9,6c0.5,0.5,1.1,1,1.6,1.6c10.9,11.2,16.3,29.3,18.4,44.4c0.3,0.3,0.7,0.7,1,1c0.2,1.6,0.4,3.2,0.6,4.8
	c0.1,1,0.2,2,0.3,3c0.2,2.1,0.5,4.1,0.7,6.2c1,8.1,2.8,15.2,7.4,22c0.3,2.7,0.1,5.3,0,8c-3.8-0.5-6.2-1.4-9-4c0-0.7,0-1.3,0-2
	c-0.6-0.3-1.1-0.6-1.7-0.8c-4.1-2.1-8.2-4.1-12.3-6.2c0-0.7,0-1.3,0-2c-0.7-0.1-1.4-0.2-2.2-0.3c-11.6-2.9-23.4-13.9-29.8-23.7
	c-1.1-2-2.1-4.1-3.1-6.2c-0.9-1.9-0.9-1.9-2.4-3.8c-1.6-2.2-2.5-4.2-3.4-6.8c-1.2-3.1-2.4-6-4-8.9c-2.4-4.7-4.1-9.5-5.8-14.5
	c-0.3-0.9-0.6-1.8-0.9-2.7c-1.4-4-2.6-7.9-3.4-12.2c-1-0.3-2-0.7-3-1c-1.5-1.9-1.5-1.9-2.9-4.3c-2.1-3.3-4.2-6-7.1-8.7
	c0-0.7,0-1.3,0-2c-0.7,0-1.3,0-2,0c-1.3-1.4-1.3-1.4-2.9-3.4c-9.5-11.1-19.5-18.6-33.1-23.6C209,333.7,209,332.4,209,331z"/>
<path class="st4" d="M748,65c4.1,0.5,5.7,2.5,8.3,5.6c2.7,3.1,5.4,6.1,8.4,8.9c4,4,6.6,8.6,9.3,13.5c1,1.7,2.1,3.4,3.1,5.1
	c2.3,3.8,4.1,7.5,5.8,11.6c1,2.4,1,2.4,2.2,4.4c4.4,7.8,5.6,16,7,24.6c0.4,2.2,0.7,4.4,1.1,6.6c0.3,2,0.7,4,1,6
	c0.6,3.7,0.6,3.7,1.8,7.2c1.6,5.9,1,11.8,0.7,17.8c0,1.3-0.1,2.6-0.1,3.9c-0.3,7.2-1.1,13.1-3.7,19.8c-0.8,3.1-1.5,6.3-2.3,9.4
	C790,212,790,212,788,215c-2,6.9-3.3,13.9-3.7,21.1C784,238,784,238,782,240c-2.1-0.4-2.1-0.4-4-1c0-0.7,0-1.3,0-2c-1-0.3-2-0.7-3-1
	c-1.2-3.1-1.2-3.1-2-6c-0.7,0-1.3,0-2,0c0-1.3,0-2.6,0-4c-0.7,0-1.3,0-2,0c-0.3-0.6-0.5-1.3-0.8-1.9c-1.5-3.9-3.1-7.7-4.7-11.5
	c-4.7-11.1-7.4-21.4-8.3-33.4c0-2.1,0-2.1-1.2-3.2c-1.1-14.9,1.3-27.2,6.1-41.2c2.8-8.6,3.1-17.2,3.1-26.1c0-1.4,0-1.4,0-2.9
	c0-5-0.3-9.9-1.2-14.8c-0.7,0-1.3,0-2,0c-0.4-0.9-0.7-1.8-1.1-2.7c-4.3-10.4-4.3-10.4-10.9-19.3C748,67.7,748,66.4,748,65z"/>
<path class="st3" d="M800,106c3.8,0.4,5.7,2.3,8.4,4.8c3.4,3.1,6.8,5.7,10.6,8.2c10.8,7.5,16.1,20.1,19.3,32.4
	c0.5,2,1.2,3.9,1.8,5.8c4.6,14.5,2,31.2-1.1,45.8c-0.1,0.7-0.3,1.4-0.5,2.2c-1.7,8.2-3.7,15.8-7.2,23.5c-1.8,4.3-3.2,8.7-4.6,13.1
	c-0.3,0.8-0.5,1.6-0.8,2.4c-2.7,8.7-3.2,17.1-3.5,26.2c0,1.1-0.1,2.2-0.1,3.4c-0.1,2.7-0.2,5.5-0.3,8.2c-4.8-0.8-4.8-0.8-6.7-2.9
	c-0.5-0.8-0.9-1.6-1.4-2.4c-0.5-0.8-1-1.6-1.5-2.5c-0.4-0.8-0.9-1.5-1.4-2.3c-0.6-1-1.2-1.9-1.9-2.9C808,267,808,267,808,265
	c-0.7,0-1.3,0-2,0c-8.1-15.5-10.1-36-5-52.9c0.3-1,0.7-2.1,1-3.1c0.6-2.2,1.2-4.5,1.8-6.7c4.7-17.3,4.7-17.3,7.2-24.2
	c4.4-14.3,6-36.6-0.9-50.4c-0.7-1.2-1.4-2.4-2.1-3.6c-0.7-1.6-1.4-3.2-2.1-4.8c-1.2-2.8-2.5-5.5-3.9-8.2c-0.7,0-1.3,0-2,0
	c-0.6-1.9-0.6-1.9-1-4C799.3,106.7,799.7,106.3,800,106z"/>
<path class="st7" d="M327,404c2.3-0.3,2.3-0.3,5,0c1.5,2.2,1.5,2.2,3,5c3.1,3.4,6.1,5.7,10,8c0.3,0.7,0.7,1.3,1,2
	c2.3,0.7,4.6,1.4,7,2c0,0.7,0,1.3,0,2c0.8,0.2,1.6,0.5,2.5,0.7c7.3,2.7,12.9,6.3,16.6,13.3c3.9,9,4.1,18.9,4.7,28.6
	c0.2,2.5,0.7,4.9,1.2,7.4c-1,0.3-2,0.7-3,1c-2.1-1.1-2.1-1.1-4.6-2.7c-3.5-2.2-6.8-4-10.7-5.4c-6.2-2.4-10.7-4.8-13.8-10.9
	c-0.6-1.2-0.6-1.2-1.2-2.3c-3.3-6.3-5.6-12.2-6.8-19.3c-1.7-10.3-4.4-19.1-11-27.4C327,405.3,327,404.7,327,404z"/>
<path class="st8" d="M991,474c1,0.3,2,0.7,3,1c-1.1,10.6-10.6,19.9-18,27c-2.1,1.5-4.2,2.8-6.5,4.1c-1.7,0.9-1.7,0.9-2.5,2.9
	c-12.5,0.3-23.1,0.3-34.6-5.2c-4.6-2.2-8.3-2.1-13.4-1.8c0-1.3,0-2.6,0-4c1.4-0.8,2.9-1.6,4.4-2.4c0.8-0.4,1.6-0.9,2.5-1.3
	c8.8-3.6,18.3-3.8,27.7-4.5c13.9-1.1,25.8-4.4,35.9-14.6C990.2,474.6,990.2,474.6,991,474z"/>
<path class="st9" d="M596,335c1.3,0,2.6,0,4,0c-1,8.1-4.4,13.5-10.7,18.7c-9.5,6.5-24.3,4.7-35.1,2.8c-1.7-0.4-3.3-0.7-5-1.1
	c-3-0.6-5.8-0.6-8.8-0.6c-1,0-2,0-3.1,0.1c-1.1,0-1.1,0-2.3,0.1c-0.3-1.6-0.7-3.3-1-5c1.5-0.6,3-1.3,4.6-1.9
	c1.3-0.5,1.3-0.5,2.6-1.1c10.5-3.9,22.1-5.8,32.9-2.1c0,0.7,0,1.3,0,2c7.7-0.8,13.2-1.7,19-7c0.6-0.9,1.1-1.9,1.7-2.8
	C595.1,336.5,595.6,335.7,596,335z"/>
<path class="st10" d="M378,431c4.5,1,4.5,1,9,2c0,0.7,0,1.3,0,2c1,0.1,2,0.1,3.1,0.2c4.5,0.7,7.7,2.7,10.9,5.8c2.4,3.7,3.7,6.6,3,11
	c-1.4,2.3-1.4,2.3-3,4c-0.7,0-1.3,0-2,0c-0.3,1.6-0.7,3.3-1,5c-0.7,0-1.3,0-2,0c-0.3,1-0.7,2-1,3c-1,0-2,0-3,0c0-0.8,0-1.5,0-2.3
	c-0.3-8-2.1-12.5-7-18.7c-0.7-1.2-1.5-2.3-2.2-3.5c-1.6-2.8-1.6-2.8-4.8-3.5C378,434.4,378,432.7,378,431z"/>
<path class="st11" d="M540,305c1.8,2,1.8,2,3,4c3.6-0.6,6.7-1.6,10-3c-1.9,5.5-4.4,7-9.3,9.5c-7.7,4.3-14.7,9.8-20.2,16.7
	c-1.7,1.9-3.4,3.3-5.5,4.7c-0.3-0.7-0.7-1.3-1-2c0.7-0.8,0.7-0.8,1.4-1.6c2.7-3.1,5.4-6.2,7.9-9.4c0.6-0.7,1.1-1.3,1.7-2
	c0.7,0,1.3,0,2,0c0-0.7,0-1.3,0-2c0.7-0.3,1.3-0.7,2-1c-0.1-0.5-0.3-1-0.4-1.6c-0.7-3.1-1.1-6.3-1.6-9.4
	C533.4,305.7,535.8,304.2,540,305z"/>
<path class="st12" d="M231,829c0.7,0,1.3,0,2,0c0,18.8,0,37.6,0,57c-0.3,0-0.7,0-1,0c-0.8-6.3-1.2-12.5-1.3-18.8
	c0-0.9,0-1.8-0.1-2.7c-0.1-2.8-0.1-5.7-0.2-8.5c0-1.9-0.1-3.9-0.1-5.8c-0.1-4.7-0.2-9.4-0.3-14.1c-1,0.5-1,0.5-2,1
	c0.3-0.8,0.6-1.5,0.9-2.3C229.7,832.8,230.4,830.9,231,829z"/>
<path class="st13" d="M501,301c0,0.7,0,1.3,0,2c-10.7,0.1-21.3-0.2-32-1c0-0.3,0-0.7,0-1c4.4-0.2,8.8-0.4,13.2-0.6
	c1.2-0.1,2.5-0.1,3.8-0.2c1.2,0,2.4-0.1,3.6-0.1c1.1,0,2.2-0.1,3.3-0.1C495.8,300,498.2,300.3,501,301z"/>
<path class="st14" d="M531,324c0,3,0,3-1.2,4.5c-0.5,0.5-1.1,1.1-1.7,1.6c-0.9,0.9-0.9,0.9-1.8,1.7c-0.6,0.6-1.2,1.2-1.9,1.8
	c-0.6,0.6-1.2,1.2-1.9,1.8c-1.5,1.5-3.1,3-4.6,4.5c-0.7-0.3-1.3-0.7-2-1C521,334,526,329,531,324z"/>
<path class="st15" d="M581,936c0,3,0,3-1.3,4.6c-0.6,0.5-1.1,1-1.7,1.6c-0.6,0.5-1.1,1.1-1.7,1.6c-0.4,0.4-0.9,0.8-1.3,1.2
	c0.3,0.7,0.7,1.3,1,2c-2,0-4,0-6,0C573.2,942.7,576.9,939.4,581,936z"/>
<path class="st16" d="M981,613c-0.3,1.3-0.7,2.6-1,4c-2,0.3-4,0.7-6,1c0-0.7,0-1.3,0-2c-0.7-0.7-1.3-1.3-2-2
	C975.2,612.9,977.7,612.9,981,613z"/>
<path class="st17" d="M435,474c-1.1,2.9-1.8,4.8-4,7c-1.7,0-3.3,0-5,0c0.3-0.7,0.7-1.3,1-2c0.7,0,1.3,0,2,0c0.3-0.6,0.6-1.3,0.9-1.9
	C431.3,474.5,432.1,474,435,474z"/>
<path class="st18" d="M71,606c0.7,0.3,1.3,0.7,2,1c-3.6,3.6-7.3,7.3-11,11c-0.7-0.3-1.3-0.7-2-1C63.4,612.9,66.7,609.2,71,606z"/>
<path class="st19" d="M522,329c1.3,0.3,2.6,0.7,4,1c-2.3,2.3-4.6,4.6-7,7c-0.7-0.7-1.3-1.3-2-2C518.7,333,520.3,331,522,329z"/>
<path class="st20" d="M361,584c0.7,0,1.3,0,2,0c0.3,3,0.7,5.9,1,9c-0.3-0.7-0.7-1.3-1-2c-1.3,1-2.6,2-4,3
	C359.5,590.6,360.1,587.3,361,584z"/>
<path class="st21" d="M282,766c2.1,3.2,2.5,5.3,3,9c-1-0.7-2-1.3-3-2c-1,0.5-1,0.5-2,1C280.9,768.2,280.9,768.2,282,766z"/>
<path class="st22" d="M807,683c3.3,0,6.6,0,10,0c0.7,1.3,1.3,2.6,2,4c-1.6-0.3-3.3-0.6-4.9-0.9c-1.4-0.2-1.4-0.2-2.7-0.5
	C809,685,809,685,807,683z"/>
<path class="st23" d="M216,153c0,1.6,0,3.3,0,5c-1.3,0.3-2.6,0.7-4,1c-0.3-1.3-0.7-2.6-1-4C214.9,153,214.9,153,216,153z"/>
<path class="st24" d="M686,628c1.7,0,3.3,0,5,0c-0.8,0.8-1.7,1.6-2.5,2.4c-2.6,2.1-2.6,2.1-2.5,3.6c-1.7,0-3.3,0-5,0
	c0-0.7,0-1.3,0-2c1.7-0.7,3.3-1.3,5-2C686,629.3,686,628.7,686,628z"/>
<path class="st25" d="M27,613c0.3,0.7,0.7,1.3,1,2c0.7,0,1.3,0,2,0c-0.3,2-0.7,4-1,6c-1,0-2,0-3,0C26.3,618.4,26.7,615.7,27,613z"/>
<path class="st26" d="M595,833c0.7,0.3,1.3,0.7,2,1c-2.5,3.5-2.5,3.5-5,7c-1-0.7-2-1.3-3-2C591,837,593,835,595,833z"/>
</svg>
