<svg width="30" height="30" viewBox="0 0 30 30" fill="none" xmlns="http://www.w3.org/2000/svg">
<path d="M22.5 12.5H20.925C20.4574 10.6887 19.491 9.04499 18.1358 7.75549C16.7806 6.466 15.0909 5.58249 13.2587 5.20535C11.4264 4.8282 9.52513 4.97255 7.77083 5.62199C6.01653 6.27143 4.47957 7.39992 3.33458 8.87923C2.1896 10.3585 1.4825 12.1293 1.29365 13.9904C1.1048 15.8515 1.44175 17.7283 2.26624 19.4075C3.09072 21.0866 4.36966 22.5008 5.95774 23.4895C7.54582 24.4781 9.37936 25.0014 11.25 25H22.5C24.1576 25 25.7473 24.3415 26.9194 23.1694C28.0915 21.9973 28.75 20.4076 28.75 18.75C28.75 17.0924 28.0915 15.5027 26.9194 14.3306C25.7473 13.1585 24.1576 12.5 22.5 12.5Z" stroke="#1E1E1E" stroke-width="2" stroke-linecap="round" stroke-linejoin="round"/>
</svg>
