<?xml version="1.0" encoding="utf-8"?>
<!-- Generator: Adobe Illustrator 26.5.0, SVG Export Plug-In . SVG Version: 6.00 Build 0)  -->
<svg version="1.1" id="Layer_1" xmlns="http://www.w3.org/2000/svg" xmlns:xlink="http://www.w3.org/1999/xlink" x="0px" y="0px"
	 viewBox="0 0 30 30" style="enable-background:new 0 0 30 30;" xml:space="preserve">
<style type="text/css">
	.st0{fill:none;stroke:#FFFFFF;stroke-width:2;stroke-linecap:round;stroke-linejoin:round;}
</style>
<path class="st0" d="M22.5,12.5h-1.6c-0.5-1.8-1.4-3.5-2.8-4.7c-1.4-1.3-3-2.2-4.9-2.6C11.4,4.8,9.5,5,7.8,5.6S4.5,7.4,3.3,8.9
	c-1.1,1.5-1.9,3.3-2,5.1s0.1,3.7,1,5.4c0.8,1.7,2.1,3.1,3.7,4.1c1.6,1,3.4,1.5,5.3,1.5h11.2c1.7,0,3.2-0.7,4.4-1.8s1.8-2.8,1.8-4.4
	s-0.7-3.2-1.8-4.4S24.2,12.5,22.5,12.5z"/>
</svg>
