<svg width="35" height="35" viewBox="0 0 35 35" fill="none" xmlns="http://www.w3.org/2000/svg">
<path d="M27.7083 4.375H7.29167C5.68084 4.375 4.375 5.68084 4.375 7.29167V27.7083C4.375 29.3192 5.68084 30.625 7.29167 30.625H27.7083C29.3192 30.625 30.625 29.3192 30.625 27.7083V7.29167C30.625 5.68084 29.3192 4.375 27.7083 4.375Z" stroke="#1E1E1E" stroke-width="2" stroke-linecap="round" stroke-linejoin="round"/>
<path d="M12.3958 14.5833C13.604 14.5833 14.5833 13.604 14.5833 12.3958C14.5833 11.1877 13.604 10.2083 12.3958 10.2083C11.1877 10.2083 10.2083 11.1877 10.2083 12.3958C10.2083 13.604 11.1877 14.5833 12.3958 14.5833Z" stroke="#1E1E1E" stroke-width="2" stroke-linecap="round" stroke-linejoin="round"/>
<path d="M30.625 21.875L23.3333 14.5833L7.29167 30.625" stroke="#1E1E1E" stroke-width="2" stroke-linecap="round" stroke-linejoin="round"/>
</svg>
