<?xml version="1.0" encoding="UTF-8"?>
<svg id="Layer_2" data-name="Layer 2" xmlns="http://www.w3.org/2000/svg" viewBox="0 0 66.55 23.2">
  <g id="Layer_1-2" data-name="Layer 1">
    <g>
      <g>
        <path d="M4.07,15.71c-.81,0-1.52-.18-2.12-.55-.61-.36-1.08-.87-1.43-1.52-.34-.65-.52-1.41-.52-2.27s.17-1.61,.52-2.26c.34-.65,.82-1.16,1.43-1.53,.61-.37,1.32-.55,2.12-.55s1.53,.18,2.14,.55c.61,.37,1.09,.88,1.43,1.53s.51,1.41,.51,2.26-.17,1.62-.51,2.27c-.34,.65-.82,1.16-1.43,1.52-.61,.36-1.33,.55-2.14,.55Zm0-.89c.61,0,1.14-.14,1.6-.41,.46-.28,.82-.67,1.07-1.19,.25-.52,.38-1.13,.38-1.85s-.13-1.34-.38-1.85c-.25-.52-.61-.91-1.07-1.18-.46-.27-.99-.41-1.6-.41s-1.13,.14-1.58,.41-.81,.67-1.07,1.18c-.26,.52-.38,1.13-.38,1.85s.13,1.34,.38,1.85c.26,.52,.61,.91,1.07,1.19,.46,.28,.98,.41,1.58,.41Z"/>
        <path d="M11.29,15.57l-2.29-6.05h1.06l1.82,5.08,1.84-5.08h1.03l-2.29,6.05h-1.16Z"/>
        <path d="M18.23,15.71c-.57,0-1.07-.13-1.51-.4s-.78-.63-1.03-1.11-.37-1.03-.37-1.66,.12-1.2,.37-1.67c.24-.47,.59-.84,1.03-1.1,.44-.26,.95-.4,1.53-.4s1.09,.13,1.51,.4c.41,.26,.73,.61,.95,1.04,.22,.43,.33,.9,.33,1.41v.25c0,.09,0,.19-.01,.3h-4.94v-.78h3.97c-.02-.55-.21-.98-.55-1.3-.34-.31-.77-.47-1.28-.47-.34,0-.66,.08-.95,.23-.29,.16-.53,.38-.7,.68-.18,.3-.26,.67-.26,1.12v.34c0,.5,.09,.91,.27,1.25,.18,.34,.42,.59,.71,.76s.61,.25,.94,.25c.42,0,.77-.09,1.05-.28,.28-.19,.47-.44,.59-.76h1c-.1,.36-.26,.68-.5,.97-.24,.29-.54,.51-.89,.68s-.77,.25-1.24,.25Z"/>
        <path d="M22.39,15.57v-6.05h.91l.07,1.15c.14-.27,.31-.5,.52-.7,.21-.19,.47-.34,.77-.44,.3-.1,.64-.16,1.03-.16v1.06h-.37c-.26,0-.5,.03-.73,.1-.23,.07-.44,.18-.62,.33-.18,.15-.32,.36-.42,.62s-.15,.58-.15,.97v3.12h-1.01Z"/>
        <path d="M29.71,15.71c-.61,0-1.15-.1-1.63-.31-.48-.21-.85-.51-1.12-.91-.27-.4-.42-.88-.43-1.45h1.72c0,.25,.07,.47,.19,.67,.12,.2,.29,.36,.5,.47,.21,.12,.47,.17,.76,.17,.26,0,.48-.04,.67-.13s.34-.2,.44-.35,.16-.33,.16-.54c0-.24-.06-.44-.18-.6-.12-.16-.28-.3-.49-.41-.2-.11-.44-.21-.71-.31s-.55-.19-.83-.28c-.67-.22-1.18-.52-1.52-.88-.34-.36-.52-.84-.52-1.43,0-.5,.12-.94,.36-1.3,.24-.36,.58-.64,1.01-.83,.43-.19,.92-.29,1.48-.29s1.07,.1,1.49,.29c.43,.2,.77,.48,1.02,.85,.25,.37,.39,.8,.4,1.3h-1.74c0-.18-.06-.36-.16-.52s-.24-.3-.41-.4c-.18-.1-.38-.15-.62-.15-.21,0-.4,.02-.57,.1-.17,.07-.31,.18-.4,.32-.1,.14-.14,.31-.14,.52s.05,.37,.14,.5c.1,.14,.23,.25,.41,.35,.18,.1,.38,.19,.62,.28,.24,.08,.5,.17,.78,.26,.42,.14,.81,.31,1.16,.51,.35,.2,.63,.45,.83,.76s.31,.72,.31,1.24c0,.44-.11,.85-.34,1.22-.23,.38-.56,.68-1,.91s-.98,.35-1.63,.35Z"/>
        <path d="M34.03,15.57V6.93h1.62v3.48c.2-.31,.47-.56,.8-.75,.34-.19,.72-.28,1.15-.28,.5,0,.93,.11,1.27,.32,.34,.21,.6,.52,.78,.92,.18,.4,.26,.9,.26,1.48v3.47h-1.61v-3.31c0-.49-.1-.86-.3-1.12-.2-.26-.51-.39-.94-.39-.27,0-.52,.06-.73,.19-.22,.13-.39,.31-.51,.55-.12,.24-.19,.54-.19,.89v3.19h-1.62Z"/>
        <path d="M43.49,15.71c-.5,0-.91-.08-1.24-.25-.33-.16-.57-.38-.74-.66-.16-.28-.25-.58-.25-.92,0-.38,.09-.7,.28-.98,.19-.28,.47-.5,.86-.65,.38-.16,.87-.23,1.46-.23h1.48c0-.3-.04-.55-.11-.74-.08-.19-.2-.34-.37-.43-.17-.1-.4-.14-.68-.14-.3,0-.56,.06-.77,.19-.21,.13-.34,.33-.39,.61h-1.57c.04-.44,.18-.82,.43-1.13s.57-.56,.97-.73c.4-.18,.85-.26,1.35-.26,.57,0,1.06,.09,1.48,.28,.42,.19,.74,.46,.96,.83,.22,.36,.33,.81,.33,1.33v3.76h-1.36l-.18-.92c-.09,.16-.19,.3-.32,.43-.12,.13-.27,.24-.43,.34-.16,.1-.34,.17-.53,.22-.19,.05-.41,.08-.66,.08Zm.4-1.25c.2,0,.38-.04,.55-.11,.16-.08,.31-.18,.43-.32,.12-.14,.22-.29,.29-.46,.07-.17,.12-.35,.14-.55h0s-1.24-.01-1.24-.01c-.26,0-.46,.03-.62,.09-.16,.06-.27,.15-.34,.26-.07,.11-.11,.24-.11,.38,0,.15,.04,.28,.11,.39,.07,.11,.18,.19,.32,.25,.14,.06,.3,.08,.47,.08Z"/>
        <path d="M48.47,15.57v-6.05h1.44l.14,1.1c.15-.26,.34-.48,.56-.67,.22-.19,.47-.33,.76-.43,.28-.1,.6-.15,.94-.15v1.72h-.55c-.24,0-.46,.03-.67,.08-.2,.05-.38,.14-.53,.28s-.27,.3-.35,.52c-.08,.21-.12,.48-.12,.81v2.8h-1.62Z"/>
        <path d="M56.18,15.71c-.61,0-1.15-.13-1.61-.4-.47-.26-.83-.63-1.09-1.1-.26-.47-.39-1.01-.39-1.61s.13-1.19,.39-1.67c.26-.48,.62-.86,1.09-1.14,.46-.28,1-.42,1.62-.42s1.12,.13,1.57,.4c.45,.26,.8,.62,1.04,1.06,.25,.44,.37,.95,.37,1.53,0,.08,0,.17,0,.27,0,.1-.01,.2-.02,.31h-4.9v-1h3.29c-.02-.38-.16-.68-.41-.91-.25-.23-.56-.35-.93-.35-.28,0-.53,.07-.76,.2s-.41,.32-.55,.58-.2,.57-.2,.95v.35c0,.33,.06,.61,.19,.86,.12,.24,.3,.43,.52,.57,.22,.14,.48,.2,.78,.2s.55-.06,.74-.19,.33-.29,.44-.5h1.64c-.1,.38-.29,.72-.56,1.03s-.59,.55-.97,.72c-.38,.17-.81,.26-1.28,.26Z"/>
      </g>
      <path d="M63.55,5.21c-1.91-1.96-4.5-3.09-7.21-3.19,0,0-.23-.63-.52-1.41-.29-.78-1.01-.82-1.61-.1l-3.53,4.24c-.6,.72-.34,1.44,.59,1.6l5.44,.93c.93,.16,1.48-.25,1.23-.92l-.45-1.21c1.48,.31,2.84,1.03,3.92,2.13,2.93,3.01,2.87,7.84-.14,10.77-2.98,2.91-7.76,2.87-10.7-.07-.28-.32-.68-.53-1.13-.53-.83,0-1.5,.67-1.5,1.5,0,.44,.19,.83,.49,1.11,4.09,4.12,10.76,4.19,14.92,.13,4.19-4.08,4.27-10.8,.19-14.99Z"/>
    </g>
  </g>
</svg>