<svg width="150" height="150" viewBox="0 0 150 150" fill="none" xmlns="http://www.w3.org/2000/svg">
<path d="M100 100L75 75L50 100" stroke="#1E1E1E" stroke-width="2" stroke-linecap="round" stroke-linejoin="round"/>
<path d="M75 75V131.25" stroke="#1E1E1E" stroke-width="2" stroke-linecap="round" stroke-linejoin="round"/>
<path d="M127.437 114.937C133.533 111.614 138.349 106.356 141.124 99.9914C143.899 93.6273 144.476 86.5202 142.764 79.7918C141.051 73.0634 137.147 67.0969 131.667 62.834C126.187 58.5711 119.443 56.2546 112.5 56.25H104.625C102.733 48.9328 99.2072 42.1396 94.3122 36.3812C89.4171 30.6228 83.2803 26.0491 76.3631 23.0038C69.446 19.9585 61.9284 18.521 54.3757 18.7993C46.823 19.0775 39.4317 21.0644 32.7574 24.6104C26.083 28.1564 20.2994 33.1694 15.8414 39.2724C11.3833 45.3754 8.36681 52.4096 7.01862 59.8462C5.67043 67.2828 6.02565 74.9283 8.05758 82.2079C10.0895 89.4874 13.7453 96.2116 18.75 101.875" stroke="#1E1E1E" stroke-width="2" stroke-linecap="round" stroke-linejoin="round"/>
<path d="M100 100L75 75L50 100" stroke="#1E1E1E" stroke-width="2" stroke-linecap="round" stroke-linejoin="round"/>
</svg>
